/* XPM */
static char *result[] = {
/* columns rows colors chars-per-pixel */
"92 134 81 1 ",
"  c #000000",
". c #0A0A0A",
"X c #131313",
"o c #1E1E1E",
"O c #343434",
"+ c #494949",
"@ c gray36",
"# c gray45",
"$ c #797979",
"% c #E71103",
"& c #E81707",
"* c #E81B0C",
"= c #E71F10",
"- c #E92213",
"; c #E92718",
": c #E92B1C",
"> c #EA2E21",
", c #EA3325",
"< c #EB3629",
"1 c #EB3A2D",
"2 c #EB3E31",
"3 c #EC4134",
"4 c #EC463A",
"5 c #ED4B3F",
"6 c #ED4E43",
"7 c #ED5145",
"8 c #E4574E",
"9 c #EE554A",
"0 c #EE594E",
"q c #EE5D52",
"w c #EF6156",
"e c #EF645B",
"r c #EF685F",
"t c #EF6B62",
"y c #EF7066",
"u c #F0756B",
"i c #F17B73",
"p c #F17F78",
"a c #F2847C",
"s c #808080",
"d c gray56",
"f c #A9AAAA",
"g c #B2B3B3",
"h c gray",
"j c #E28A84",
"k c #F28A83",
"l c #F38F88",
"z c #F3938C",
"x c #F49791",
"c c #F49B95",
"v c #F59F99",
"b c #F5A39C",
"n c #F5A6A1",
"m c #F6ABA5",
"M c #F6AEA9",
"N c #F6B2AD",
"B c #F7B6B2",
"V c #F7B9B5",
"C c #F8BBB7",
"Z c #F8BDB9",
"A c #F8C1BE",
"S c #CFCFCF",
"D c #DEDEDE",
"F c #F9C5C2",
"G c #F9C9C5",
"H c #FACDCA",
"J c #FAD1CE",
"K c #FAD4D2",
"L c #FBD8D6",
"P c #FBDDDB",
"I c #FCE0DE",
"U c #E6E6E6",
"Y c #FCE5E3",
"T c #FCE8E7",
"R c #FDECEB",
"E c #FDF0EF",
"W c #F6F6F6",
"Q c #FEF3F3",
"! c #FEF8F7",
"~ c #FFFFFF",
"^ c None",
/* pixels */
"^                                                                                         ^^",
" XfD8%DDDDj=jDDDDDDDDDDDDDDDDDDDDDDDDDDDDDDDDDDDDDDDDDDDDDDDDDDDDDDDDDDDDDDDDDDDDDDDDDDDhO ^",
".U~A%%~~~R*l*R~~~~~~~~~~~~~~~~~~~~~~~~~~~~~~~~~~~~~~~~~~~~~~~~~~~~~~~~~~~~~~~~~~~~~~~~~~~~O ",
"#~~1%%~~~b%J%m~~~~~~~~~~~~~~~~~~~~~~~~~~~~~~~~~~~~~~~~~~~~~~~~~~~~~~~~~~~~~~~~~~~~~~~~~~~~g ",
"d~~0%%~~~u%T%u~~~~~~~~~~~~~~~~~~~~~~~~~~~~~~~~~~~~~~~~~~~~~~~~~~~~~~~~~~~~~~~~~~~~~~~~~~~~S ",
"d~~P%%~~~6%R%7~~~~~~~~~~~~~~~~~~~~~~~~~~~~~~~~~~~~~~~~~~~~~~~~~~~~~~~~~~~~~~~~~~~~~~~~~~~~S ",
"d~~~%%~~~<%Q%<~~~~~~~~~~~~~~~~~~~~~~~~~~~~~~~~~~~~~~~~~~~~~~~~~~~~~~~~~~~~~~~~~~~~~~~~~~~~S ",
"d~~~%%~~~-%~%;~~~~~~~~~~~~~~~~~~~~~~~~~~~~~~~~~~~~~~~~~~~~~~~~~~~~~~~~~~~~~~~~~~~~~~~~~~~~S ",
"d~~~%%~~~&%~%*~~~~~~~~~~~~~~~~~~~~~~~~~~~~~~~~~~~~~~~~~~~~~~~~~~~~~~~~~~~~~~~~~~~~~~~~~~~~S ",
"d~~~%%~~~%%~%%~~~~~~~~~~~~~~~~~~~~~~~~~~~~~~~~~~~~~~~~~~~~~~~~~~~~~~~~~~~~~~~~~~~~~~~~~~~~S ",
"d~~~%%~~~%%~%%~~~~~~~~~R~~~~~~~~~~~~~~~~~~~~~~~~~~~~~~~~~~~~~~~~~~~R~~~~~~~~~~~~~~~~~~~~~~S ",
"d~~~%%~~~&%~%*~~~~~~~~~bJ~~~~~~~~~~~~~~~~~~~~~~~~~~~~~~~~~~~~~~~~~~cL~~~~~~~~~~~~~~~~~~~~~S ",
"d~~~%%~~~-%~%-~~~~~~~~Q>r~~~~~~~~~~~~~~~~~~~~~~~~~~~~~~~~~~~~~~~~~Q;t~~~~~~~~~~~~~~~~~~~~~S ",
"d~~~%%~~~,%Q%<~~~~~~~~i%%A~~~~~~~~~~~~~~~~~~~~~~~~~~~~~~~~~~~~~~~~u%%G~~~~~~~~~~~~~~~~~~~~S ",
"d~~~%%~~~6%Q%7~~~~~~~N%%%;Y~~~~~~~~~~~~~~~~~~~~~~~~~~~~~~~~~~~~~~m%%%:T~~~~~~~~~~~~~~~~~~~S ",
"d~~~%%~~~u%Y%u~~~~~~L*%%%%4Q~~~~~~~~~~~~~~~~~~~~~~~~~~~~~~~~~~~~K*%%%&4Q~~~~~~~~~~~~~~~~~~S ",
"d~~~%%~~~n%H%m~~~~~Y,%%%%%%6Q~~~~~~~~~~~~~~~~~~~~~~~~~~~~~~~~~~I>%%%%%%9Q~~~~~~~~~~~~~~~~~S ",
"d~~~%%~~~R&l*R~~~~Y,%%%%%%%%2Y~~~~~~~~~~~~~~~~~~~~~~~~~~~~~~~~P>%%%%%%%%3Y~~~~~~~~~~~~~~~~S ",
"d~~%%%%~~~c-v~~~~I>%%%%%%%%%%:J~~~~~~~~~~~~~~~~~~~~~~~~~~~~~~P:%%%%%%%%%%>K~~~~~~~~~~~~~~~S ",
"d~~~~~~~~~~~~~~~n*%%%%%%%%%%%%*v~~~~~~~~~~~~~~~~~~~~~~~~~~~~b*%%%%%%%%%%%%*b~~~~~~~~~~~~~~S ",
"d~~~~~~~~~~~~~Z4%%%%%%%%%%%%%%%%4H~~~~~~~~~~~~~~~~~~~~~~~~V3%%%%%%%%%%%%%%%%4J~~~~~~~~~~~~S ",
"d~~~~~~~~~~~~~~A<%%%%%%%%%%%%%%rY~~~~~~~~~~~~~~~~~~~~~~~~~~A<%%%%%%%%%%%%%%tR~~~~~~~~~~~~~S ",
"d~~~~~~~~~~~~~~~Qe%%%%%%%%%%%*m~~~~~~~~~~~~~~~~~~~~~~~~~~~~~Qq%%%%%%%%%%%*N~~~~~~~~~~~~~~~S ",
"d~~~~~~!~~~~~~~~~~z%%%%%%%%%&V~~~~~~~~~~~~~~~~~~~~~~~~~~~~~~~~z%%%%%%%%%*A~~~~~~~~~~~~~~~~S ",
"d~~~~~Rx~~~~~~~~~~~m%%%%%%%*F~~~~~~~~~~~~~~~~~~~~~~~~~~~~~~~~~~n%%%%%%%*F~~~~~~~~~~~~~~~~~S ",
"d~~~~~0*K~~~~~~~~~~~v%%%%%%C~~~~~~~~~~~~~~~~~R!~~~~~~~~~~~~~~~~~x%%%%%&F~~~~~~~~~~~~~~~~~~S ",
"d~~~~i%%;L~~~~~~~~~~~l%%%%l~~~~~~~~~~~~~~~~~~vG~~~~~~~~~~~~~~~~~~k%%%%z~~~~~~~~~~~~~~~~~~~S ",
"d~~Rt%%%%-N!~~~~~~~~~~e%%0~~~~~~~~~~~~~~~~~~Q;9~~~~~~~~~~~~~~~~~~~q%%q~~~~~~~~~~~~~~~~~~~~S ",
"d~~H3%%%%*vQ~~~~~~~~~~R--R~~~~~~~~~~~~~~~~~~t%%B~~~~~~~~~~~~~~~~~~Y-;E~~~~~~~~~~~~~~~~~~~~S ",
"d~~~Qw%%*G~~~~~~~~~~~~~kc~~~~~~~~~~~~~~~~~~b%%%*P~~~~~~~~~~~~~~~~~~kb~~~~~~~~~~~~~~~~~~~~~S ",
"d~~~~!9%V~~~~~~~~~~~~~~KQ~~~~~~~~~~~~~~~~~H*%%%%<R~~~~~~~~~~~~~~~~~HQ~~~~~~~~~~~~~~~~~~~~~S ",
"d~~~~~Ti~~~~~~~~~~~~~~~~~~~~~~~~~~~~~~~~~P:%%%%%%2R~~~~~~~~~~~~~~~~~~~~~~~~~~~~~~~~~~~~~~~S ",
"d~~~~~~Q~~~~~~~~~~~~~~~~~~~~~~~~~~~~~~~~P;%%%%%%%%>K~~~~~~~~~~~~~~~~~~~~~~~~~~~~~~~~~~~~~~S ",
"d~~~~~~~~~~~~~~~~~~~~~~~~~~~~~~~~~~~~~~J;%%%%%%%%%%-Z~~~~~~~~~~~~~~~~~~~~~~~~~~~~~~~~~~~~~S ",
"d~~~~~~~~~~~~~~~~~~~~~~~~~~~~~~~~~~~~~z&%%%%%%%%%%%%&kQ~~~~~~~~~~~~~~~~~~~~~~~~~~~~~~~~~~~S ",
"d~~~~~~~~~~~~~~~~~~~~~~~~~~~~~~~~~~~A<%%%%%%%%%%%%%%%%2H~~~~~~~~~~~~~~~~~~~~~~~~~~~~~~~~~~S ",
"d~~~~~~~~~~~~~~~~~~~~~~~~~~~~~~~~~~~~K6%%%%%%%%%%%%%%uE~~~~~~~~~~~~~~~~~~~~~~~~~~~~~~~~~~~S ",
"d~~~~~~~~~~~~~~~~~~~~~~~~~~~~~~~~~~~~~!i%%%%%%%%%%%*Z~~~~~~~~~~~~~~~~~~~~~~~~~~~~~~~~~~~~~S ",
"d~~~~~~~~~~~~~~~~~~~~~~~~~~~~~~~~~~~~~~~b&%%%%%%%%*G~~~~~~~~~~~~~~~~~~~~~~~~~~~~~~~~~~~~~~S ",
"d~~~~~~~~~~~~~~~~~~~~~~~~~~~~~~~~~~~~~~~~Z&%%%%%%-H~~~~~~~~~~~~~~~~~~~~~~~~~~~~~~~~~~~~~~~S ",
"d~~~~~~~~~~~~~~~~~~~~~~P~~~~~~~~~~~~~~~~~~N&%%%%&G~~~~~~~~~~~~~~~~~P~~~~~~~~~~~~~~~~~~~~~~S ",
"d~~~~~~~~~~~~~~~~~~~~~~aJ~~~~~~~~~~~~~~~~~~m%%%%c~~~~~~~~~~~~~~~~~~kG~~~~~~~~~~~~~~~~~~~~~S ",
"d~~~~~~~~~~~~~~~~~~~~~Y*q~~~~~~~~~~~~~~~~~~~u%%q~~~~~~~~~~~~~~~~~~Y*9~~~~~~~~~~~~~~~~~~~~~S ",
"d~~~~~~~~~~~~~~~~~~~~!7%%B~~~~~~~~~~~~~~~~~~E>;Q~~~~~~~~~~~~~~~~~~0%%m~~~~~~~~~~~~~~~~~~~~S ",
"d~~~~~~~~~~~~~~~~~~~~a%%%*P~~~~~~~~~~~~~~~~~~cb~~~~~~~~~~~~~~~~~~k%%%*P~~~~~~~~~~~~~~~~~~~S ",
"d~~~~~~~~~~~~~~~~~~~B%%%%%<Y~~~~~~~~~~~~~~~~~PQ~~~~~~~~~~~~~~~~~V&%%%%,Y~~~~~~~~~~~~~~~~~~S ",
"d~~~~~~~~~~~~~~~~~~A*%%%%%%2R~~~~~~~~~~~~~~~~~~~~~~~~~~~~~~~~~~G*%%%%%%<Y~~~~~~~~~~~~~~~~~S ",
"d~~~~~~~~~~~~~~~~~A*%%%%%%%%:J~~~~~~~~~~~~~~~~~~~~~~~~~~~~~~~~G*%%%%%%%%:J~~~~~~~~~~~~~~~~S ",
"d~~~~~~~~~~~~~~~~V*%%%%%%%%%%*V~~~~~~~~~~~~~~~~~~~~~~~~~~~~~~C*%%%%%%%%%%*B~~~~~~~~~~~~~~~S ",
"d~~~~~~~~~~~~~~Qu%%%%%%%%%%%%%&pQ~~~~~~~~~~~~~~~~~~~~~~~~~~Qi%%%%%%%%%%%%%%iQ~~~~~~~~~~~~~S ",
"d~~~~~~~~~~~~~B;%%%%%%%%%%%%%%%%4K~~~~~~~~~~~~~~~~~~~~~~~~Z;%%%%%%%%%%%%%%%%3J~~~~~~~~~~~~S ",
"d~~~~~~~~~~~~~~P7%%%%%%%%%%%%%*z!~~~~~~~~~~~~~~~~~~~~~~~~~~I9%%%%%%%%%%%%%&z!~~~~~~~~~~~~~S ",
"d~~~~~~~~~~~~~~~!a%%%%%%%%%%%>L~~~~~~~~~~~~~~~~~~~~~~~~~~~~~~a%%%%%%%%%%%;K~~~~~~~~~~~~~~~S ",
"d~~~~~~~~~~~~~~~~~m*%%%%%%%%>P~~~~~~~~~~~~~~~~~~~~~~~~~~~~~~~~N*%%%%%%%%;P~~~~~~~~~~~~~~~~S ",
"d~~~~~~~~~~~~~~~~~~A&%%%%%%,Y~~~~~~~~~~~~~~~~~~~~~~~~~~~~~~~~~~G*%%%%%%>I~~~~~~~~~~~~~~~~~S ",
"d~~~~~~~~~~~~~~~~~~~B%%%%%-P~~~~~~~~~~~~~~~~~~~~~~~~~~~~~~~~~~~~V&%%%%*P~~~~~~~~~~~~~~~~~~S ",
"d~~~~~~~~~~~~~~~~~~~~n%%%%V~~~~~~~~~~~~~~~~~~~~~~~~~~~~~~~~~~~~~~m%%%%N~~~~~~~~~~~~~~~~~~~S ",
"d~~~~~~~~~~~~~~~~~~~~~t%%a~~~~~~~~~~~~~~~~~~~~~~~~~~~~~~~~~~~~~~~~u%%p~~~~~~~~~~~~~~~~~~~~S ",
"d~~~~~~~~~~~~~~~~~~~~~Q;2!~~~~~~~~~~~~~~~~~~~~~~~~~~~~~~~~~~~~~~~~Q:<!~~~~~~~~~~~~~~~~~~~~S ",
"d~~~~~~~~~~~~~~~~~~~~~~zZ~~~~~~~~~~~~~~~~~~~~~~~~~~~~~~~~~~~~~~~~~~cB~~~~~~~~~~~~~~~~~~~~~S ",
"d~~~~~~~~~~~~~~~~~~~~~~P~~~~~~~~~~~~~~~~~~~~~~~~~~~~~~~~~~~~~~~~~~~P!~~~~~~~~~~~~~~~~~~~~~S ",
"d~~~~~~~~~~~~~~~~~~~~~~~~~~~~~~~~~~~~~~~~~~~~~~~~~~~~~~~~~~~~~~~~~~~~~~~~~~~~~~~~~~~~~~~~~S ",
"d~~~~~~~~~~~~~~~~~~~~~~~~~~~~~~~~~~~~~~~~~~~~~~~~~~~~~~~~~~~~~~~~~~~~~~~~~~~~~~~~~~~~~~~~~S ",
"d~~~~~~~~~~~~~~~~~~~~~~~~~~~~~~~~~~~~~~~~~~~~~~~~~~~~~~~~~~~~~~~~~~~~~~~~~~~~~~~~~~~~~~~~~S ",
"d~~~~~~~~~~~~~~~~~~~~~~~~~~~~~~~~~~~~~~~~~~~~~~~~~~~~~~~~~~~~~~~~~~~~~~~~~~~~~~~~~~~~~~~~~S ",
"d~~~~~~~~~~~~~~~~~~~~~~~~~~~~~~~~~~~~~~~~~~~~~~~~~~~~~~~~~~~~~~~~~~~~~~~~~~~~~~~~~~~~~~~~~S ",
"d~~~~~~~~~~~~~~~~~~~~~~~~~~~~~~~~~~~~~~~~~~~~~~~~~~~~~~~~~~~~~~~~~~~~~~~~~~~~~~~~~~~~~~~~~S ",
"d~~~~~~~~~~~~~~~~~~~~~~~~~~~~~~~~~~~~~~~~~~~~~~~~~~~~~~~~~~~~~~~~~~~~~~~~~~~~~~~~~~~~~~~~~S ",
"d~~~~~~~~~~~~~~~~~~~~~~~~~~~~~~~~~~~~~~~~~~~~~~~~~~~~~~~~~~~~~~~~~~~~~~~~~~~~~~~~~~~~~~~~~S ",
"d~~~~~~~~~~~~~~~~~~~~~~~~~~~~~~~~~~~~~~~~~~~~~~~~~~~~~~~~~~~~~~~~~~~~~~~~~~~~~~~~~~~~~~~~~S ",
"d~~~~~~~~~~~~~~~~~~~~~~Q~~~~~~~~~~~~~~~~~~~~~~~~~~~~~~~~~~~~~~~~~~~Q~~~~~~~~~~~~~~~~~~~~~~S ",
"d~~~~~~~~~~~~~~~~~~~~~~NY~~~~~~~~~~~~~~~~~~~~~~~~~~~~~~~~~~~~~~~~~~mT~~~~~~~~~~~~~~~~~~~~~S ",
"d~~~~~~~~~~~~~~~~~~~~~~2k~~~~~~~~~~~~~~~~~~~~~~~~~~~~~~~~~~~~~~~~~~2k~~~~~~~~~~~~~~~~~~~~~S ",
"d~~~~~~~~~~~~~~~~~~~~~c%&P~~~~~~~~~~~~~~~~~~~~~~~~~~~~~~~~~~~~~~~~z%*P~~~~~~~~~~~~~~~~~~~~S ",
"d~~~~~~~~~~~~~~~~~~~~G&%%4Q~~~~~~~~~~~~~~~~~~~~~~~~~~~~~~~~~~~~~~G&%%4!~~~~~~~~~~~~~~~~~~~S ",
"d~~~~~~~~~~~~~~~~~~~R:%%%%q!~~~~~~~~~~~~~~~~~~~~~~~~~~~~~~~~~~~~R:%%%%q~~~~~~~~~~~~~~~~~~~S ",
"d~~~~~~~~~~~~~~~~~~Q6%%%%%%t~~~~~~~~~~~~~~~~~~~~~~~~~~~~~~~~~~~Q6%%%%%%t~~~~~~~~~~~~~~~~~~S ",
"d~~~~~~~~~~~~~~~~~Q6%%%%%%%%y!~~~~~~~~~~~~~~~~~~~~~~~~~~~~~~~~Q0%%%%%%%%u!~~~~~~~~~~~~~~~~S ",
"d~~~~~~~~~~~~~~~~Q4%%%%%%%%%%6R~~~~~~~~~~~~~~~~~~~~~~~~~~~~~~Q9%%%%%%%%%%6R~~~~~~~~~~~~~~~S ",
"d~~~~~~~~~~~~~~~J<%%%%%%%%%%%%,H~~~~~~~~~~~~~~~~~~~~~~~~~~~~H<%%%%%%%%%%%%,K~~~~~~~~~~~~~~S ",
"d~~~~~~~~~~~~!Hi&%%%%%%%%%%%%%%&uL~~~~~~~~~~~~~~~~~~~~~~~!Hu&%%%%%%%%%%%%%%&uL~~~~~~~~~~~~S ",
"d~~~~~~~~~~~~~El*%%%%%%%%%%%%%%1C!~~~~~~~~~~~~~~~~~~~~~~~~Ql*%%%%%%%%%%%%%%2C~~~~~~~~~~~~~S ",
"d~~~~~~~~~~~~~~~P2%%%%%%%%%%%%p!~~~~~~~~~~~~~~~~~~~~~~~~~~~~P1%%%%%%%%%%%%a!~~~~~~~~~~~~~~S ",
"d~~~~~~~~~~~~~~~~Qq%%%%%%%%%%z~~~~~~~~~~~~~~~~~~~~~~~~~~~~~~~Qq%%%%%%%%%%c~~~~~~~~~~~~~~~~S ",
"d~~~~~~~~~~~~~~~~~!i%%%%%%%%c~~~~~~~~~~~~~~~~~~~~~~~~~~~~~~~~~!u%%%%%%%%b~~~~~~~~~~~~~~~~~S ",
"d~~~~~~~~~~~~~~~~~~~p%%%%%%c~~~~~~~~~~~~~~~~~R~~~~~~~~~~~~~~~~~~i%%%%%%v~~~~~~~~~~~~~~~~~~S ",
"d~~~~~~~~~~~~~~~~~~~~t%%%%t~~~~~~~~~~~~~~~~~~nI~~~~~~~~~~~~~~~~~~r%%%%t~~~~~~~~~~~~~~~~~~~S ",
"d~~~~~~~~~~~~~~~~~~~~Q3%%1Q~~~~~~~~~~~~~~~~~!<p~~~~~~~~~~~~~~~~~~Q3%%3Q~~~~~~~~~~~~~~~~~~~S ",
"d~~~~~~~~~~~~~~~~~~~~~L%&P~~~~~~~~~~~~~~~~~~k%&J~~~~~~~~~~~~~~~~~~J%*P~~~~~~~~~~~~~~~~~~~~S ",
"d~~~~~~~~~~~~~~~~~~~~~~ua~~~~~~~~~~~~~~~~~~Z%%%2Q~~~~~~~~~~~~~~~~~~yk~~~~~~~~~~~~~~~~~~~~~S ",
"d~~~~~~~~~~~~~~~~~~~~~~GR~~~~~~~~~~~~~~~~~Y-%%%%4!~~~~~~~~~~~~~~~~~GR~~~~~~~~~~~~~~~~~~~~~S ",
"d~~~~~~~~~~~~~~~~~~~~~~!~~~~~~~~~~~~~~~~~R3%%%%%%w!~~~~~~~~~~~~~~~~!~~~~~~~~~~~~~~~~~~~~~~S ",
"d~~~~~~~~~~~~~~~~~~~~~~~~~~~~~~~~~~~~~~~R2%%%%%%%%qQ~~~~~~~~~~~~~~~~~~~~~~~~~~~~~~~~~~~~~~S ",
"d~~~~~~~~~~~~~~~~~~~~~~~~~~~~~~~~~~~~~~R2%%%%%%%%%%3I~~~~~~~~~~~~~~~~~~~~~~~~~~~~~~~~~~~~~S ",
"d~~~~~~~~~~~~~~~~~~~~~~~~~~~~~~~~~~~~~Z:%%%%%%%%%%%%;A~~~~~~~~~~~~~~~~~~~~~~~~~~~~~~~~~~~~S ",
"d~~~~~~~~~~~~~~~~~~~~~~~~~~~~~~~~~~~Ae%%%%%%%%%%%%%%%%eK~~~~~~~~~~~~~~~~~~~~~~~~~~~~~~~~~~S ",
"d~~~~~~~~~~~~~~~~~~~~~~~~~~~~~~~~~~~!b-%%%%%%%%%%%%%%6J~~~~~~~~~~~~~~~~~~~~~~~~~~~~~~~~~~~S ",
"d~~~~~~~~~~~~~~~~~~~~~~~~~~~~~~~~~~~~~T6%%%%%%%%%%%%z~~~~~~~~~~~~~~~~~~~~~~~~~~~~~~~~~~~~~S ",
"d~~~~~~~~~~~~~~~~~~~~~~~~~~~~~~~~~~~~~~!t%%%%%%%%%%m~~~~~~~~~~~~~~~~~~~~~~~~~~~~~~~~~~~~~~S ",
"d~~~~~~~~~~~~~~~~~~~~~~~~~~~~~~~~~~~~~~~~k%%%%%%%&N~~~~~~~~~~~~~~~~~~~~~~~~~~~~~~~~~~~~~~~S ",
"d~~~~~~~~~~~~~~~~~~~~~~R~~~~~~~~~~~~~~~~~~l%%%%%%m~~~~~~~~~~~~~~~~~R~~~~~~~~~~~~~~~~~~~~~~S ",
"d~~~~~~~~~~~~~~~~~~~~~~bL~~~~~~~~~~~~~~~~~~i%%%%p~~~~~~~~~~~~~~~~~~cP~~~~~~~~~~~~~~~P~~~~~S ",
"d~~~~~~~~~~~~~~~~~~~~~Q>u~~~~~~~~~~~~~~~~~~!6%%6!~~~~~~~~~~~~~~~~~Q:u~~~~~~~~~~~~~~R<R~~~~S ",
"d~~~~~~~~~~~~~~~~~~~~~p%%G~~~~~~~~~~~~~~~~~~P&*T~~~~~~~~~~~~~~~~~~i%%G~~~~~~~~~~~~!7%6Q~~~S ",
"d~~~~~~~~~~~~~~~~~~~~N%%%>R~~~~~~~~~~~~~~~~~~pz~~~~~~~~~~~~~~~~~~m%%%<R~~~~~~~~~~!q%%%6R~~S ",
"d~~~~~~~~~~~~~~~~~~~P=%%%%3R~~~~~~~~~~~~~~~~~HR~~~~~~~~~~~~~~~~~P*%%%%3Q~~~~~~~~P3%%%%%,L~S ",
"d~~~~~~~~~~~~~~~~~~Y<%%%%%%6Q~~~~~~~~~~~~~~~~!~~~~~~~~~~~~~~~~~T,%%%%%%6Q~~~~~~~~J:%%%:K~~S ",
"d~~~~~~~~~~~~~~~~~Y,%%%%%%%%7R~~~~~~~~~~~~~~~~~~~~~~~~~~~~~~~~R1%%%%%%%%9R~~~~~~~~Y>%;P~~~S ",
"d~~~~~~~~~~~~~~~~I,%%%%%%%%%%,K~~~~~~~~~~~~~~~~~~~~~~~~~~~~~~I<%%%%%%%%%%,L~~~~~~~~L*A~~~~S ",
"d~~~~~~~~~~~~~~~m-%%%%%%%%%%%%*m~~~~~~~~~~~~~~~~~~~~~~~~~~~~m-%%%%%%%%%%%%*N~~~~~~~~Z~~~~~S ",
"d~~~~~~~~~~~~~C6%%%%%%%%%%%%%%%%6J~~~~~~~~~~~~~~~~~~~~~~~~V4%%%%%%%%%%%%%%%%7K~~~~~~~~~~~~S ",
"d~~~~~~~~~~~~~~B>%%%%%%%%%%%%%%wI~~~~~~~~~~~~~~~~~~~~~~~~~~B:%%%%%%%%%%%%%%eI~~~~~~~~~~~~~S ",
"d~~~~~~~~~~~~~~~Qq%%%%%%%%%%%&n~~~~~~~~~~~~~~~~~~~~~~~~~~~~~R0%%%%%%%%%%%&m~~~~~~~~~~~~~~~S ",
"d~~~~~~~~~~~~~~~~!a%%%%%%%%%*B~~~~~~~~~~~~~~~~~~~~~~~~~~~~~~~~p%%%%%%%%%&V~~~~~~~~~~~~~~~~S ",
"d~~~~~~~~~~~~~~~~~~b&%%%%%%*Z~~~~~~~~~~~~~~~~~~~~~~~~~~~~~~~~~~c%%%%%%%&F~~~~~~~~~~~~~~~~~S ",
"d~~~~~~~~~~~~~~~~~~~b%%%%%%V~~~~~~~~~~~~~~~~~~~~~~~~~~~~~~~~~~~~v%%%%%&Z~~~~~~~c-v~~~%%%%~S ",
"d~~~~~~~~~~~~~~~~~~~~l%%%%k~~~~~~~~~~~~~~~~~~~~~~~~~~~~~~~~~~~~~~k%%%%l~~~~~~~R&l*R~~~%%~~S ",
"d~~~~~~~~~~~~~~~~~~~~~q%%9~~~~~~~~~~~~~~~~~~~~~~~~~~~~~~~~~~~~~~~!0%%0~~~~~~~~n%J%m~~~%%~~S ",
"d~~~~~~~~~~~~~~~~~~~~~Y*-R~~~~~~~~~~~~~~~~~~~~~~~~~~~~~~~~~~~~~~~~Y&;R~~~~~~~~u%Y%u~~~%%~~S ",
"d~~~~~~~~~~~~~~~~~~~~~~ac~~~~~~~~~~~~~~~~~~~~~~~~~~~~~~~~~~~~~~~~~~av~~~~~~~~~6%Q%6~~~%%~~S ",
"d~~~~~~~~~~~~~~~~~~~~~~KQ~~~~~~~~~~~~~~~~~~~~~~~~~~~~~~~~~~~~~~~~~~JQ~~~~~~~~~<%Q%<~~~%%~~S ",
"d~~~~~~~~~~~~~~~~~~~~~~~~~~~~~~~~~~~~~~~~~~~~~~~~~~~~~~~~~~~~~~~~~~~~~~~~~~~~~-%~%;~~~%%~~S ",
"d~~~~~~~~~~~~~~~~~~~~~~~~~~~~~~~~~~~~~~~~~~~~~~~~~~~~~~~~~~~~~~~~~~~~~~~~~~~~~&%~%&~~~%%~~S ",
"d~~~~~~~~~~~~~~~~~~~~~~~~~~~~~~~~~~~~~~~~~~~~~~~~~~~~~~~~~~~~~~~~~~~~~~~~~~~~~%%~%%~~~%%~~S ",
"d~~~~~~~~~~~~~~~~~~~~~~~~~~~~~~~~~~~~~~~~~~~~~~~~~~~~~~~~~~~~~~~~~~~~~~~~~~~~~%%~%%~~~%%~~S ",
"d~~~~~~~~~~~~~~~~~~~~~~~~~~~~~~~~~~~~~~~~~~~~~~~~~~~~~~~~~~~~~~~~~~~~~~~~~~~~~&%~%*~~~%%~~S ",
"d~~~~~~~~~~~~~~~~~~~~~~~~~~~~~~~~~~~~~~~~~~~~~~~~~~~~~~~~~~~~~~~~~~~~~~~~~~~~~-%~%;~~~%%~~S ",
"d~~~~~~~~~~~~~~~~~~~~~~~~~~~~~~~~~~~~~~~~~~~~~~~~~~~~~~~~~~~~~~~~~~~~~~~~~~~~~,%Q%<~~~%%~~S ",
"d~~~~~~~~~~~~~~~~~~~~~~~~~~~~~~~~~~~~~~~~~~~~~~~~~~~~~~~~~~~~~~~~~~~~~~~~~~~~~6%E%7~~~%%P~S ",
"d~~~~~~~~~~~~~~~~~~~~~~~~~~~~~~~~~~~~~~~~~~~~~~~~~~~~~~~~~~~~~~~~~~~~~~~~~~~~~u%Y%u~~~%%0~S ",
"s~~~~~~~~~~~~~~~~~~~~~~~~~~~~~~~~~~~~~~~~~~~~~~~~~~~~~~~~~~~~~~~~~~~~~~~~~~~~~b%J%m~~~%%1~h ",
"oW~~~~~~~~~~~~~~~~~~~~~~~~~~~~~~~~~~~~~~~~~~~~~~~~~~~~~~~~~~~~~~~~~~~~~~~~~~~~R&l&R~~~%%F~@ ",
" +U~~~~~~~~~~~~~~~~~~~~~~~~~~~~~~~~~~~~~~~~~~~~~~~~~~~~~~~~~~~~~~~~~~~~~~~~~~~~v-c~~~~%eW$ ^",
"^  .....................................................................................  ^^"
};
