/* XPM */
static char *result[] = {
/* columns rows colors chars-per-pixel */
"92 134 79 1 ",
"  c #000000",
". c #0A0A0A",
"X c #131313",
"o c #1A1A1A",
"O c #232323",
"+ c #747474",
"@ c #7E7E7E",
"# c #E71103",
"$ c #E81707",
"% c #E7190A",
"& c #E81B0C",
"* c #E92213",
"= c #E92718",
"- c #E92A1C",
"; c #EA2E21",
": c #EA3224",
"> c #EB3629",
", c #EB3A2D",
"< c #EB3E31",
"1 c #E54135",
"2 c #EC4235",
"3 c #EC463A",
"4 c #ED4A3E",
"5 c #ED4E43",
"6 c #ED5246",
"7 c #EE564C",
"8 c #EE5A4F",
"9 c #EE5D52",
"0 c #EF6156",
"q c #EF655C",
"w c #EF685F",
"e c #EF6A61",
"r c #EF7066",
"t c #F07167",
"y c #F0746B",
"u c #F17B73",
"i c #F17F78",
"p c #F2847C",
"a c #8D8D8D",
"s c gray62",
"d c #B4B4B5",
"f c #BCBCBC",
"g c #F28B84",
"h c #F38F88",
"j c #F3938C",
"k c #E19F9A",
"l c #F49690",
"z c #F49B94",
"x c #F59F99",
"c c #E1A19C",
"v c #F5A29C",
"b c #F5A6A0",
"n c #F5AAA4",
"m c #F6AEA9",
"M c #F6B2AD",
"N c #F7B5B1",
"B c #F7B8B5",
"V c #F8BBB7",
"C c #F8BEBA",
"Z c #F8C1BE",
"A c #C6C6C6",
"S c #D2D2D2",
"D c gray87",
"F c #F9C5C2",
"G c #F9CAC6",
"H c #F9CCC9",
"J c #FAD1CE",
"K c #FAD5D2",
"L c #FBD8D6",
"P c #FBDDDB",
"I c #FCE1DF",
"U c #FCE5E3",
"Y c #FCE8E6",
"T c #FDECEB",
"R c #FDF0EF",
"E c #FEF3F3",
"W c #FEF8F7",
"Q c #FFFFFF",
"! c None",
/* pixels */
"!!                                                                                        !!",
"  +Sk1%%1cDDDDDDDDDDDDDDDDDDDDDDDDDDDDDDDDDDDDDDDDDDDDDDDDDDDDDDDDDDDDDDDDDDDDDDDDDDDDDDS@  ",
" aQN#eTTq#BQQQQQQQQQQQQQQQQQQQQQQQQQQQQQQQQQQQQQQQQQQQQQQQQQQQQQQQQQQQQQQQQQQQQQQQQQQQQQQQs ",
" QQ3#IQQP#4QQQQQQQQQQQQQQQQQQQQQQQQQQQQQQQQQQQQQQQQQQQQQQQQQQQQQQQQQQQQQQQQQQQQQQQQQQQQQQQQ.",
"oQQ&#WQQW$&QQQQQQQQQQQQQQQQQQQQQQQQQQQQQQQQQQQQQQQQQQQQQQQQQQQQQQQQQQQQQQQQQQQQQQQQQQQQQQQQO",
"oQQ&#WQQW#&QQQQQQQQQQQQQQQQQQQQQQQQQQQQQQQQQQQQQQQQQQQQQQQQQQQQQQQQQQQQQQQQQQQQQQQQQQQQQQQQO",
"oQQ2#UQQP#3QQQQQQQQQQQQQQQQQQQQQQQQQQQQQQQQQQQQQQQQQQQQQQQQQQQQQQQQQQQQQQQQQQQQQQQQQQQQQQQQO",
"oQQm#eTTw#MQQQQQQQQQQQQQQQQQQQQQQQQQQQQQQQQQQQQQQQQQQQQQQQQQQQQQQQQQQQQQQQQQQQQQQQQQQQQQQQQO",
"oQQQi####pQQQQQQQQQQQQQQQQQQQQQQQQQQQQQQQQQQQQQQQQQQQQQQQQQQQQQQQQQQQQQQQQQQQQQQQQQQQQQQQQQO",
"oQQK#3IU2#KQQQQQQQQQQQQQQQQQQQQQQQQQQQQQQQQQQQQQQQQQQQQQQQQQQQQQQQQQQQQQQQQQQQQQQQQQQQQQQQQO",
"oQQe#ZQQC#yQQQQQQQQQQQQQYQQQQQQQQQQQQQQQQQQQQQQQQQQQQQQQQQQQQQQQQQQQYQQQQQQQQQQQQQQQQQQQQQQO",
"oQQ,#YQQY#,QQQQQQQQQQQQEpQQQQQQQQQQQQQQQQQQQQQQQQQQQQQQQQQQQQQQQQQQEpQQQQQQQQQQQQQQQQQQQQQQO",
"oQQ*#WQQW#*QQQQQQQQQQQQg&UQQQQQQQQQQQQQQQQQQQQQQQQQQQQQQQQQQQQQQQQQp&YQQQQQQQQQQQQQQQQQQQQQO",
"oQQ$#QQQQ#$QQQQQQQQQQQJ&#qQQQQQQQQQQQQQQQQQQQQQQQQQQQQQQQQQQQQQQQQG$#qQQQQQQQQQQQQQQQQQQQQQO",
"oQQ&#WQQW#&QQQQQQQQQQT:###xQQQQQQQQQQQQQQQQQQQQQQQQQQQQQQQQQQQQQQR:###vQQQQQQQQQQQQQQQQQQQQO",
"oQQ2#YQQY#2QQQQQQQQQQ9####$CQQQQQQQQQQQQQQQQQQQQQQQQQQQQQQQQQQQQQ7####&FQQQQQQQQQQQQQQQQQQQO",
"oQQp#CQQV#pQQQQQQQQQu######$FQQQQQQQQQQQQQQQQQQQQQQQQQQQQQQQQQQQt######&GQQQQQQQQQQQQQQQQQQO",
"oQQY=2IU2-TQQQQQQQQu#########mQQQQQQQQQQQQQQQQQQQQQQQQQQQQQQQQQu########$mQQQQQQQQQQQQQQQQQO",
"oQQQP8&&8PQQQQQQQWt###########gQQQQQQQQQQQQQQQQQQQQQQQQQQQQQQWe###########hQQQQQQQQQQQQQQQQO",
"oQQQQQQQQQQQQQQQP4#############9YQQQQQQQQQQQQQQQQQQQQQQQQQQQP4#############0YQQQQQQQQQQQQQQO",
"oQQQQQQQQQQQQQYu&###############*zEQQQQQQQQQQQQQQQQQQQQQQQUt&###############*xWQQQQQQQQQQQQO",
"oQQQQQQQQQQQQQQYt##############-VQQQQQQQQQQQQQQQQQQQQQQQQQQYe##############:VQQQQQQQQQQQQQQO",
"oQQQQQQQQQQQQQQQQM&###########0EQQQQQQQQQQQQQQQQQQQQQQQQQQQQQn&###########qEQQQQQQQQQQQQQQQO",
"oQQQQQQWQQQQQQQQQQK;#########wWQQQQQQQQQQQQQQQQQQQQQQQQQQQQQQQJ:#########eWQQQQQQQQQQQQQQQQO",
"oQQQQQQgEQQQQQQQQQQY>#######rQQQQQQQQQQQQQQQQQQQQQQQQQQQQQQQQQQY:#######yQQQQQQQQQQQQQQQQQQO",
"oQQQQQF$rQQQQQQQQQQQY;#####0QQQQQQQQQQQQQQQQQQQQQQQQQQQQQQQQQQQQI-#####qQQQQQQQQQQQQQQQQQQQO",
"oQQQQK*##pQQQQQQQQQQQP-###>EQQQQQQQQQQQQQQQQQQQQQQQQQQQQQQQQQQQQQP*###>EQQQQQQQQQQQQQQQQQQQO",
"oQQQN*####qYQQQQQQQQQQZ##&KQQQQQQQQQQQQQQQQQQQQQQQQQQQQQQQQQQQQQQQV##&PQQQQQQQQQQQQQQQQQQQQO",
"oQQTg$####7KQQQQQQQQQQQt#xQQQQQQQQQQQQQQQQQQQQQQQQQQQQQQQQQQQQQQQQQe#bQQQQQQQQQQQQQQQQQQQQQO",
"oQQQQC&##wWQQQQQQQQQQQQY<WQQQQQQQQQQQQQQQQQQQQQQQQQQQQQQQQQQQQQQQQQU<QQQQQQQQQQQQQQQQQQQQQQO",
"oQQQQQV#5QQQQQQQQQQQQQQQGQQQQQQQQQQQQQQQQQQQQQQQQQQQQQQQQQQQQQQQQQQQGQQQQQQQQQQQQQQQQQQQQQQO",
"oQQQQQQiYQQQQQQQQQQQQQQQQQQQQQQQQQQQQQQQQQQQQQQQQQQQQQQQQQQQQQQQQQQQQQQQQQQQQQQQQQQQQQQQQQQO",
"oQQQQQQEQQQQQQQQQQQQQQQQQQQQQQQQQQQQQQQQQQQQQQQQQQQQQQQQQQQQQQQQQQQQQQQQQQQQQQQQQQQQQQQQQQQO",
"oQQQQQQQQQQQQQQQQQQQQQQQQQQQQQQQQQQQQQQQQQQQQQQQQQQQQQQQQQQQQQQQQQQQQQQQQQQQQQQQQQQQQQQQQQQO",
"oQQQQQQQQQQQQQQQQQQQQQQQQQQQQQQQQQQQQQQQQQQQQQQQQQQQQQQQQQQQQQQQQQQQQQQQQQQQQQQQQQQQQQQQQQQO",
"oQQQQQQQQQQQQQQQQQQQQQQQQQQQQQQQQQQQQQQQQQQQQQQQQQQQQQQQQQQQQQQQQQQQQQQQQQQQQQQQQQQQQQQQQQQO",
"oQQQQQQQQQQQQQQQQQQQQQQQQQQQQQQQQQQQQQQQQQQQQQQQQQQQQQQQQQQQQQQQQQQQQQQQQQQQQQQQQQQQQQQQQQQO",
"oQQQQQQQQQQQQQQQQQQQQQQQQQQQQQQQQQQQQQQQQQQQQQQQQQQQQQQQQQQQQQQQQQQQQQQQQQQQQQQQQQQQQQQQQQQO",
"oQQQQQQQQQQQQQQQQQQQQQQQQQQQQQQQQQQQQQQQQQQQQQQQQQQQQQQQQQQQQQQQQQQQQQQQQQQQQQQQQQQQQQQQQQQO",
"oQQQQQQQQQQQQQQQQQQQQQQQQQQQQQQQQQQQQQQQQQQQQQQQQQQQQQQQQQQQQQQQQQQQQQQQQQQQQQQQQQQQQQQQQQQO",
"oQQQQQQQQQQQQQQQQQQQQQQQPQQQQQQQQQQQQQQQQQQQQQQQQQQQQQQQQQQQQQQQQQQQPQQQQQQQQQQQQQQQQQQQQQQO",
"oQQQQQQQQQQQQQQQQQQQQQQYeQQQQQQQQQQQQQQQQQQQQQQQQQQQQQQQQQQQQQQQQQQPuQQQQQQQQQQQQQQQQQQQQQQO",
"oQQQQQQQQQQQQQQQQQQQQQQt$KQQQQQQQQQQQQQQQQQQQQQQQQQQQQQQQQQQQQQQQQQ9&UQQQQQQQQQQQQQQQQQQQQQO",
"oQQQQQQQQQQQQQQQQQQQQQB##4WQQQQQQQQQQQQQQQQQQQQQQQQQQQQQQQQQQQQQQQn##8QQQQQQQQQQQQQQQQQQQQQO",
"oQQQQQQQQQQQQQQQQQQQQP*###iQQQQQQQQQQQQQQQQQQQQQQQQQQQQQQQQQQQQQQK&###hQQQQQQQQQQQQQQQQQQQQO",
"oQQQQQQQQQQQQQQQQQQQW2#####zQQQQQQQQQQQQQQQQQQQQQQQQQQQQQQQQQQQQE>#####mQQQQQQQQQQQQQQQQQQQO",
"oQQQQQQQQQQQQQQQQQQW7#######vQQQQQQQQQQQQQQQQQQQQQQQQQQQQQQQQQQE4######$MQQQQQQQQQQQQQQQQQQO",
"oQQQQQQQQQQQQQQQQQE7#########uQQQQQQQQQQQQQQQQQQQQQQQQQQQQQQQQR4#########gQQQQQQQQQQQQQQQQQO",
"oQQQQQQQQQQQQQQQQE5###########qEQQQQQQQQQQQQQQQQQQQQQQQQQQQQQY2###########yWQQQQQQQQQQQQQQQO",
"oQQQQQQQQQQQQQQQC-#############,GQQQQQQQQQQQQQQQQQQQQQQQQQQQM=#############3KQQQQQQQQQQQQQQO",
"oQQQQQQQQQQQQQYw################%zWQQQQQQQQQQQQQQQQQQQQQQQI8################&bWQQQQQQQQQQQQO",
"oQQQQQQQQQQQQQQWz&#############4PQQQQQQQQQQQQQQQQQQQQQQQQQQWg$#############7YQQQQQQQQQQQQQQO",
"oQQQQQQQQQQQQQQQQH;###########pQQQQQQQQQQQQQQQQQQQQQQQQQQQQQQZ=###########lQQQQQQQQQQQQQQQQO",
"oQQQQQQQQQQQQQQQQQT5#########gQQQQQQQQQQQQQQQQQQQQQQQQQQQQQQQQY2#########zQQQQQQQQQQQQQQQQQO",
"oQQQQQQQQQQQQQQQQQQW6#######lQQQQQQQQQQQQQQQQQQQQQQQQQQQQQQQQQQE2#######bQQQQQQQQQQQQQQQQQQO",
"oQQQQQQQQQQQQQQQQQQQE2#####pQQQQQQQQQQQQQQQQQQQQQQQQQQQQQQQQQQQQY,#####jQQQQQQQQQQQQQQQQQQQO",
"oQQQQQQQQQQQQQQQQQQQQT,###5WQQQQQQQQQQQQQQQQQQQQQQQQQQQQQQQQQQQQQY-###9QQQQQQQQQQQQQQQQQQQQO",
"oQQQQQQQQQQQQQQQQQQQQQL$#-YQQQQQQQQQQQQQQQQQQQQQQQQQQQQQQQQQQQQQQQH##>EQQQQQQQQQQQQQQQQQQQQO",
"oQQQQQQQQQQQQQQQQQQQQQQg#BQQQQQQQQQQQQQQQQQQQQQQQQQQQQQQQQQQQQQQQQQu#GQQQQQQQQQQQQQQQQQQQQQO",
"oQQQQQQQQQQQQQQQQQQQQQQE7QQQQQQQQQQQQQQQQQQQQQQQQQQQQQQQQQQQQQQQQQQYqQQQQQQQQQQQQQQQQQQQQQQO",
"oQQQQQQQQQQQQQQQQQQQQQQQLQQQQQQQQQQQQQQQQQQQQQQQQQQQQQQQQQQQQQQQQQQQLQQQQQQQQQQQQQQQQQQQQQQO",
"oQQQQQQQQQQQQQQQQQQQQQQQQQQQQQQQQQQQQQQQQQQQQQQQQQQQQQQQQQQQQQQQQQQQQQQQQQQQQQQQQQQQQQQQQQQO",
"oQQQQQQQQQQQQQQQQQQQQQQQQQQQQQQQQQQQQQQQQQQQQQQQQQQQQQQQQQQQQQQQQQQQQQQQQQQQQQQQQQQQQQQQQQQO",
"oQQQQQQQQQQQQQQQQQQQQQQQQQQQQQQQQQQQQQQQQQQQQQQQQQQQQQQQQQQQQQQQQQQQQQQQQQQQQQQQQQQQQQQQQQQO",
"oQQQQQQQQQQQQQQQQQQQQQQQQQQQQQQQQQQQQQQQQQQQQQQQQQQQQQQQQQQQQQQQQQQQQQQQQQQQQQQQQQQQQQQQQQQO",
"oQQQQQQQQQQQQQQQQQQQQQQQQQQQQQQQQQQQQQQQQQQQQQQQQQQQQQQQQQQQQQQQQQQQQQQQQQQQQQQQQQQQQQQQQQQO",
"oQQQQQQQQQQQQQQQQQQQQQQQQQQQQQQQQQQQQQQQQQQQQQQQQQQQQQQQQQQQQQQQQQQQQQQQQQQQQQQQQQQQQQQQQQQO",
"oQQQQQQQQQQQQQQQQQQQQQQQQQQQQQQQQQQQQQQQQQQQQQQQQQQQQQQQQQQQQQQQQQQQQQQQQQQQQQQQQQQQQQQQQQQO",
"oQQQQQQQQQQQQQQQQQQQQQQQQQQQQQQQQQQQQQQQQQQQQQQQQQQQQQQQQQQQQQQQQQQQQQQQQQQQQQQQQQQQQQQQQQQO",
"oQQQQQQQQQQQQQQQQQQQQQQQQQQQQQQQQQQQQQQQQQQQQQQQQQQQQQQQQQQQQQQQQQQQQQQQQQQQQQQQQQQQQQQQQQQO",
"oQQQQQQQQQQQQQQQQQQQQQQQEQQQQQQQQQQQQQQQQQQQQQQQQQQQQQQQQQQQQQQQQQQQEQQQQQQQQQQQQQQQQQQQQQQO",
"oQQQQQQQQQQQQQQQQQQQQQQWzQQQQQQQQQQQQQQQQQQQQQQQQQQQQQQQQQQQQQQQQQQWzQQQQQQQQQQQQQQQQQQQQQQO",
"oQQQQQQQQQQQQQQQQQQQQQQv-WQQQQQQQQQQQQQQQQQQQQQQQQQQQQQQQQQQQQQQQQQz;WQQQQQQQQQQQQQQQQQQQQQO",
"oQQQQQQQQQQQQQQQQQQQQQY*#pQQQQQQQQQQQQQQQQQQQQQQQQQQQQQQQQQQQQQQQQU*#pQQQQQQQQQQQQQQQQQQQQQO",
"oQQQQQQQQQQQQQQQQQQQQW4###FQQQQQQQQQQQQQQQQQQQQQQQQQQQQQQQQQQQQQQW4##$GQQQQQQQQQQQQQQQQQQQQO",
"oQQQQQQQQQQQQQQQQQQQQi####*KQQQQQQQQQQQQQQQQQQQQQQQQQQQQQQQQQQQQQy####*KQQQQQQQQQQQQQQQQQQQO",
"oQQQQQQQQQQQQQQQQQQQb######-PQQQQQQQQQQQQQQQQQQQQQQQQQQQQQQQQQQQv######-PQQQQQQQQQQQQQQQQQQO",
"oQQQQQQQQQQQQQQQQQQM$#######:KQQQQQQQQQQQQQQQQQQQQQQQQQQQQQQQQQm$#######:PQQQQQQQQQQQQQQQQQO",
"oQQQQQQQQQQQQQQQQQm##########&BQQQQQQQQQQQQQQQQQQQQQQQQQQQQQQQn$#########&BQQQQQQQQQQQQQQQQO",
"oQQQQQQQQQQQQQQQEy#############hQQQQQQQQQQQQQQQQQQQQQQQQQQQQEy#############hQQQQQQQQQQQQQQQO",
"oQQQQQQQQQQQQQUv:###############<NWQQQQQQQQQQQQQQQQQQQQQQQUx:###############<NWQQQQQQQQQQQQO",
"oQQQQQQQQQQQQQQC<##############&gYQQQQQQQQQQQQQQQQQQQQQQQQQC,##############&hTQQQQQQQQQQQQQO",
"oQQQQQQQQQQQQQQQWp############<KQQQQQQQQQQQQQQQQQQQQQQQQQQQQWp############2LQQQQQQQQQQQQQQQO",
"oQQQQQQQQQQQQQQQQQn$#########2RQQQQQQQQQQQQQQQQQQQQQQQQQQQQQQQb$#########3RQQQQQQQQQQQQQQQQO",
"oQQQQQQQQQQQQQQQQQQF*#######5RQQQQQQQQQQQQQQQQQQQQQQQQQQQQQQQQQZ*#######5EQQQQQQQQQQQQQQQQQO",
"oQQQQQQQQQQQQQQQQQQQH*#####2EQQQQQQQQQQQQQQQQQQQQQQQQQQQQQQQQQQQH&#####3EQQQQQQQQQQQQQQQQQQO",
"oQQQQQQQQQQQQQQQQQQQQF$###*UQQQQQQQQQQQQQQQQQQQQQQQQQQQQQQQQQQQQQF$###*YQQQQQQQQQQQQQQQQQQQO",
"oQQQQQQQQQQQQQQQQQQQQQx###CQQQQQQQQQQQQQQQQQQQQQQQQQQQQQQQQQQQQQQQz###CQQQQQQQQQQQQQQQQQQQQO",
"oQQQQQQQQQQQQQQQQQQQQQQ5#pQQQQQQQQQQQQQQQQQQQQQQQQQQQQQQQQQQQQQQQQQ4#gQQQQQQQQQQQQQQQQQQQQQO",
"oQQQQQQQQQQQQQQQQQQQQQQK-EQQQQQQQQQQQQQQQQQQQQQQQQQQQQQQQQQQQQQQQQQH;WQQQQQQQQQQQQQQQQQQQQQO",
"oQQQQQQQQQQQQQQQQQQQQQQQNQQQQQQQQQQQQQQQQQQQQQQQQQQQQQQQQQQQQQQQQQQQNQQQQQQQQQQQQQQQQQQQQQQO",
"oQQQQQQQQQQQQQQQQQQQQQQQWQQQQQQQQQQQQQQQQQQQQQQQQQQQQQQQQQQQQQQQQQQQWQQQQQQQQQQQQQQQQQQQQQQO",
"oQQQQQQQQQQQQQQQQQQQQQQQQQQQQQQQQQQQQQQQQQQQQQQQQQQQQQQQQQQQQQQQQQQQQQQQQQQQQQQQQQQQQQQQQQQO",
"oQQQQQQQQQQQQQQQQQQQQQQQQQQQQQQQQQQQQQQQQQQQQQQQQQQQQQQQQQQQQQQQQQQQQQQQQQQQQQQQQQQQQQQQQQQO",
"oQQQQQQQQQQQQQQQQQQQQQQQQQQQQQQQQQQQQQQQQQQQQQQQQQQQQQQQQQQQQQQQQQQQQQQQQQQQQQQQQQQQQQQQQQQO",
"oQQQQQQQQQQQQQQQQQQQQQQQQQQQQQQQQQQQQQQQQQQQQQQQQQQQQQQQQQQQQQQQQQQQQQQQQQQQQQQQQQQQQQQQQQQO",
"oQQQQQQQQQQQQQQQQQQQQQQQQQQQQQQQQQQQQQQQQQQQQQQQQQQQQQQQQQQQQQQQQQQQQQQQQQQQQQQQQQQQQQQQQQQO",
"oQQQQQQQQQQQQQQQQQQQQQQQQQQQQQQQQQQQQQQQQQQQQQQQQQQQQQQQQQQQQQQQQQQQQQQQQQQQQQQQQQQQQQQQQQQO",
"oQQQQQQQQQQQQQQQQQQQQQQQQQQQQQQQQQQQQQQQQQQQQQQQQQQQQQQQQQQQQQQQQQQQQQQQQQQQQQQQQQQQQQQQQQQO",
"oQQQQQQQQQQQQQQQQQQQQQQQQQQQQQQQQQQQQQQQQQQQQQQQQQQQQQQQQQQQQQQQQQQQQQQQQQQQQQQQQQQQQQQQQQQO",
"oQQQQQQQQQQQQQQQQQQQQQQQYQQQQQQQQQQQQQQQQQQQQQQQQQQQQQQQQQQQQQQQQQQQYQQQQQQQQQQQQQQQQQQQQQQO",
"oQQQQQQQQQQQQQQQQQQQQQQEpQQQQQQQQQQQQQQQQQQQQQQQQQQQQQQQQQQQQQQQQQQEgQQQQQQQQQQQQQQQUWQQQQQO",
"oQQQQQQQQQQQQQQQQQQQQQQg*TQQQQQQQQQQQQQQQQQQQQQQQQQQQQQQQQQQQQQQQQQp*TQQQQQQQQQQQQQQyxQQQQQO",
"oQQQQQQQQQQQQQQQQQQQQQK&#qQQQQQQQQQQQQQQQQQQQQQQQQQQQQQQQQQQQQQQQQH&#eQQQQQQQQQQQQQm#&FQQQQO",
"oQQQQQQQQQQQQQQQQQQQQE:###mQQQQQQQQQQQQQQQQQQQQQQQQQQQQQQQQQQQQQQR:###nQQQQQQQQQQQM$##&VQQQO",
"oQQQQQQQQQQQQQQQQQQQQ9#####NQQQQQQQQQQQQQQQQQQQQQQQQQQQQQQQQQQQQQ8####$CQQQQQQQQWp#####$zWQO",
"oQQQQQQQQQQQQQQQQQQQp######&FQQQQQQQQQQQQQQQQQQQQQQQQQQQQQQQQQQQi######&GQQQQQQQQWq####gQQQO",
"oQQQQQQQQQQQQQQQQQQg########&VQQQQQQQQQQQQQQQQQQQQQQQQQQQQQQQQQg########&CQQQQQQQQQu##jQQQQO",
"oQQQQQQQQQQQQQQQQQi##########$jQQQQQQQQQQQQQQQQQQQQQQQQQQQQQQWu##########$jQQQQQQQQW8qQQQQQO",
"oQQQQQQQQQQQQQQQP5#############qTQQQQQQQQQQQQQQQQQQQQQQQQQQQP5#############eRQQQQQQQJYQQQQQO",
"oQQQQQQQQQQQQQUu&###############*vWQQQQQQQQQQQQQQQQQQQQQQQUu&###############=vWQQQQQQQQQQQQO",
"oQQQQQQQQQQQQQQYq##############-MQQQQQQQQQQQQQQQQQQQQQQQQQQU0##############-NQQQQQQQQQQQQQQO",
"oQQQQQQQQQQQQQQQQm$###########9EQQQQQQQQQQQQQQQQQQQQQQQQQQQQQn$###########0RQQQQQQQQQQQQQQQO",
"oQQQQQQQQQQQQQQQQQG=#########0WQQQQQQQQQQQQQQQQQQQQQQQQQQQQQQQG=#########wWQQQQQQQQQQQQQQQQO",
"oQQQQQQQQQQQQQQQQQQP>#######eQQQQQQQQQQQQQQQQQQQQQQQQQQQQQQQQQQP:#######rWQQQQQQQQQQQQQQQQQO",
"oQQQQQQQQQQQQQQQQQQQY:#####9WQQQQQQQQQQQQQQQQQQQQQQQQQQQQQQQQQQQU;#####0QQQQQQQQQQP8&*8PQQQO",
"oQQQQQQQQQQQQQQQQQQQQP*###>EQQQQQQQQQQQQQQQQQQQQQQQQQQQQQQQQQQQQQP*###,EQQQQQQQQQT-2PU<-TQQO",
"oQQQQQQQQQQQQQQQQQQQQQC##%KQQQQQQQQQQQQQQQQQQQQQQQQQQQQQQQQQQQQQQQB##&KQQQQQQQQQQp#CQQB#pQQO",
"oQQQQQQQQQQQQQQQQQQQQQQq#zQQQQQQQQQQQQQQQQQQQQQQQQQQQQQQQQQQQQQQQQQq#xQQQQQQQQQQQ2#YQQY#2QQO",
"oQQQQQQQQQQQQQQQQQQQQQQU<WQQQQQQQQQQQQQQQQQQQQQQQQQQQQQQQQQQQQQQQQQP<QQQQQQQQQQQQ&#WQQW#*QQO",
"oQQQQQQQQQQQQQQQQQQQQQQQGQQQQQQQQQQQQQQQQQQQQQQQQQQQQQQQQQQQQQQQQQQQFQQQQQQQQQQQQ##QQQQ#$QQO",
"oQQQQQQQQQQQQQQQQQQQQQQQQQQQQQQQQQQQQQQQQQQQQQQQQQQQQQQQQQQQQQQQQQQQQQQQQQQQQQQQQ*#WQQW#*QQO",
"oQQQQQQQQQQQQQQQQQQQQQQQQQQQQQQQQQQQQQQQQQQQQQQQQQQQQQQQQQQQQQQQQQQQQQQQQQQQQQQQQ,#YQQY#,QQO",
"oQQQQQQQQQQQQQQQQQQQQQQQQQQQQQQQQQQQQQQQQQQQQQQQQQQQQQQQQQQQQQQQQQQQQQQQQQQQQQQQQr#CQQC#yQQO",
"oQQQQQQQQQQQQQQQQQQQQQQQQQQQQQQQQQQQQQQQQQQQQQQQQQQQQQQQQQQQQQQQQQQQQQQQQQQQQQQQQJ$2IU3#KQQO",
"oQQQQQQQQQQQQQQQQQQQQQQQQQQQQQQQQQQQQQQQQQQQQQQQQQQQQQQQQQQQQQQQQQQQQQQQQQQQQQQQQQp####iQQQO",
"oQQQQQQQQQQQQQQQQQQQQQQQQQQQQQQQQQQQQQQQQQQQQQQQQQQQQQQQQQQQQQQQQQQQQQQQQQQQQQQQQM#eTTw#MQQO",
"oQQQQQQQQQQQQQQQQQQQQQQQQQQQQQQQQQQQQQQQQQQQQQQQQQQQQQQQQQQQQQQQQQQQQQQQQQQQQQQQQ3#IQQP#3QQO",
"oQQQQQQQQQQQQQQQQQQQQQQQQQQQQQQQQQQQQQQQQQQQQQQQQQQQQQQQQQQQQQQQQQQQQQQQQQQQQQQQQ&#WQQW#&QQO",
"oQQQQQQQQQQQQQQQQQQQQQQQQQQQQQQQQQQQQQQQQQQQQQQQQQQQQQQQQQQQQQQQQQQQQQQQQQQQQQQQQ&#QQQW#&QQO",
".QQQQQQQQQQQQQQQQQQQQQQQQQQQQQQQQQQQQQQQQQQQQQQQQQQQQQQQQQQQQQQQQQQQQQQQQQQQQQQQQ3#PQQP#4QQX",
" dQQQQQQQQQQQQQQQQQQQQQQQQQQQQQQQQQQQQQQQQQQQQQQQQQQQQQQQQQQQQQQQQQQQQQQQQQQQQQQQN#wTTe#BQA ",
" .dQQQQQQQQQQQQQQQQQQQQQQQQQQQQQQQQQQQQQQQQQQQQQQQQQQQQQQQQQQQQQQQQQQQQQQQQQQQQQQQN4&&3NQfX ",
"!   ....................................................................................   !"
};
