/* XPM */
static char *result[] = {
/* columns rows colors chars-per-pixel */
"93 134 81 1 ",
"  c #000000",
". c #0A0A0A",
"X c #131313",
"o c #3F3F3F",
"O c gray25",
"+ c gray40",
"@ c #686868",
"# c #747474",
"$ c #E71103",
"% c #E81707",
"& c #E71A0B",
"* c #E81B0B",
"= c #E92314",
"- c #E92718",
"; c #E6291B",
": c #EA2A1C",
"> c #EA2D20",
", c #EA3123",
"< c #EB362A",
"1 c #EB3A2C",
"2 c #EB3E31",
"3 c #EC4235",
"4 c #EC4539",
"5 c #EC4A3E",
"6 c #E54D42",
"7 c #ED4D42",
"8 c #ED5246",
"9 c #EE554B",
"0 c #EE594E",
"q c #EE5D52",
"w c #EF6056",
"e c #EF655C",
"r c #EF685F",
"t c #EF6C62",
"y c #EF7066",
"u c #F07167",
"i c #F0746B",
"p c #F17B73",
"a c #E2807A",
"s c #F2847D",
"d c #848484",
"f c #A4A4A5",
"g c gray",
"h c #F28B84",
"j c #F38F88",
"k c #F3928C",
"l c #F49791",
"z c #F49B95",
"x c #F59F99",
"c c #F5A39D",
"v c #F5A6A0",
"b c #F6AAA5",
"n c #F6AEA9",
"m c #F6B2AD",
"M c #F7B6B2",
"N c #F7B8B5",
"B c #F8BBB7",
"V c #F8BDB9",
"C c #F8C1BD",
"Z c #C1C1C1",
"A c #CACACA",
"S c #DFC2C0",
"D c #DCDCDC",
"F c #F9C6C3",
"G c #F9C9C5",
"H c #FACECB",
"J c #FAD2CF",
"K c #FAD5D3",
"L c #FBD8D6",
"P c #FBDDDB",
"I c #FCE0DE",
"U c #E1E1E1",
"Y c #FCE5E3",
"T c #FCE8E6",
"R c #FDEBEA",
"E c #FDF0EF",
"W c #F5F5F5",
"Q c #FEF3F3",
"! c #FEF8F7",
"~ c #FFFFFF",
"^ c None",
/* pixels */
"^^                                                                                         ^^",
"^ oZDS6*;aDDDUDDUDUDDDUDUDDDUDUDDDUDUDDDUDUDDDUDUDDDUDUDDDUDUDDDUDUDDDUDUDDDUDUDDDUDUDDDDf. ^",
" o~~Q,2TT1j~~~~~~~~~~~~~~~~~~~~~~~~~~~~~~~~~~~~~~~~~~~~~~~~~~~~~~~~~~~~~~~~~~~~~~~~~~~~~~~U  ",
" g~~l$m~~n%R~~~~~~~~~~~~~~~~~~~~~~~~~~~~~~~~~~~~~~~~~~~~~~~~~~~~~~~~~~~~~~~~~~~~~~~~~~~~~~~@ ",
" D~~8$P~~P$c~~~~~~~~~~~~~~~~~~~~~~~~~~~~~~~~~~~~~~~~~~~~~~~~~~~~~~~~~~~~~~~~~~~~~~~~~~~~~~~d ",
" D~~:$Q~~Q$r~~~~~~~~~~~~~~~~~~~~~~~~~~~~~~~~~~~~~~~~~~~~~~~~~~~~~~~~~~~~~~~~~~~~~~~~~~~~~~~d ",
" D~~%$~~~!$3~~~~~~~~~~~~~~~~~~~~~~~~~~~~~~~~~~~~~~~~~~~~~~~~~~~~~~~~~~~~~~~~~~~~~~~~~~~~~~~d ",
" D~~%$~~~~$-~~~~~~~~~~~~~~~~~~~~~~~~~~~~~~~~~~~~~~~~~~~~~~~~~~~~~~~~~~~~~~~~~~~~~~~~~~~~~~~d ",
" D~~-$Q~~Q$&~~~~~~~~~~~~~~~~~~~~~~~~~~~~~~~~~~~~~~~~~~~~~~~~~~~~~~~~~~~~~~~~~~~~~~~~~~~~~~~d ",
" D~~8$I~~P$$~~~~~~~~~~~~~~~~~~~~~~~~~~~~~~~~~~~~~~~~~~~~~~~~~~~~~~~~~~~~~~~~~~~~~~~~~~~~~~~d ",
" D~~k$m~~n$&~~~~~~~~~~~~T~~~~~~~~~~~~~~~~~~~~~~~~~~~~~~~~~~~~~~~~~~~T~~~~~~~~~~~~~~~~~~~~~~d ",
" D~~Q:3YT2$=~~~~~~~~~~~~p!~~~~~~~~~~~~~~~~~~~~~~~~~~~~~~~~~~~~~~~~~~i~~~~~~~~~~~~~~~~~~~~~~d ",
" D~~~L7&<z$1~~~~~~~~~~~K$c~~~~~~~~~~~~~~~~~~~~~~~~~~~~~~~~~~~~~~~~~C$M~~~~~~~~~~~~~~~~~~~~~d ",
" D~~~~~~~Q$0~~~~~~~~~~Q3$-R~~~~~~~~~~~~~~~~~~~~~~~~~~~~~~~~~~~~~~~E<$,Q~~~~~~~~~~~~~~~~~~~~d ",
" D~~~~~~~T$s~~~~~~~~~~u$$$8~~~~~~~~~~~~~~~~~~~~~~~~~~~~~~~~~~~~~~~w$$$w~~~~~~~~~~~~~~~~~~~~d ",
" D~~~$R~~F$V~~~~~~~~~v$$$$$p~~~~~~~~~~~~~~~~~~~~~~~~~~~~~~~~~~~~~k$$$$$j~~~~~~~~~~~~~~~~~~~d ",
" D~~~$N~~h:~~~~~~~~~V%$$$$$$s~~~~~~~~~~~~~~~~~~~~~~~~~~~~~~~~~~~n$$$$$$$l~~~~~~~~~~~~~~~~~~d ",
" D~~~$3TH=m~~~~~~~~V%$$$$$$$$eQ~~~~~~~~~~~~~~~~~~~~~~~~~~~~~~~~n%$$$$$$$$u!~~~~~~~~~~~~~~~~d ",
" D~~~B7%<n~~~~~~~~M%$$$$$$$$$$7R~~~~~~~~~~~~~~~~~~~~~~~~~~~~~~v%$$$$$$$$$$qQ~~~~~~~~~~~~~~~d ",
" D~~~~~~~~~~~~~~Qp$$$$$$$$$$$$$<F~~~~~~~~~~~~~~~~~~~~~~~~~~~Qt$$$$$$$$$$$$$2H~~~~~~~~~~~~~~d ",
" D~~~~~~~~~~~~Qx>$$$$$$$$$$$$$$$$tY~~~~~~~~~~~~~~~~~~~~~~~Ql:$$$$$$$$$$$$$$$%pT~~~~~~~~~~~~d ",
" D~~~~~~~~~~~~~~x=$$$$$$$$$$$$$%kQ~~~~~~~~~~~~~~~~~~~~~~~~~!k%$$$$$$$$$$$$$*z!~~~~~~~~~~~~~d ",
" D~~~~~~~~~~~~~~~P1$$$$$$$$$$$,K~~~~~~~~~~~~~~~~~~~~~~~~~~~~~K,$$$$$$$$$$$1P~~~~~~~~~~~~~~~d ",
" D~~~~~!~~~~~~~~~~Qw$$$$$$$$$,I~~~~~~~~~~~~~~~~~~~~~~~~~~~~~~~R8$$$$$$$$$2T~~~~~~~~~~~~~~~~d ",
" D~~~~~bK~~~~~~~~~~~u$$$$$$$<Y~~~~~~~~~~~~~~~~~~~~~~~~~~~~~~~~~!q$$$$$$$3R~~~~~~~~~~~~~~~~~d ",
" D~~~~Y-5Q~~~~~~~~~~~w$$$$$:T~~~~~~~~~~~~~~~~~Y~~~~~~~~~~~~~~~~~!9$$$$$<E~~~~~~~~~~~~~~~~~~d ",
" D~~~R2$$qQ~~~~~~~~~~!0$$$%F~~~~~~~~~~~~~~~~~~e~~~~~~~~~~~~~~~~~~Q7$$$%J~~~~~~~~~~~~~~~~~~~d ",
" D~~H1$$$$4K~~~~~~~~~~Q>$$k~~~~~~~~~~~~~~~~~~V$c~~~~~~~~~~~~~~~~~~T=$$b~~~~~~~~~~~~~~~~~~~~d ",
" D~!b*$$$$1V~~~~~~~~~~~B$9~~~~~~~~~~~~~~~~~~R,$-R~~~~~~~~~~~~~~~~~~b$e~~~~~~~~~~~~~~~~~~~~~d ",
" D~~~P,$$4Q~~~~~~~~~~~~~8K~~~~~~~~~~~~~~~~~~0$$$7Q~~~~~~~~~~~~~~~~~~3T~~~~~~~~~~~~~~~~~~~~~d ",
" D~~~~P->T~~~~~~~~~~~~~~G~~~~~~~~~~~~~~~~~~h$$$$$y~~~~~~~~~~~~~~~~~~G~~~~~~~~~~~~~~~~~~~~~~d ",
" D~~~~~cV~~~~~~~~~~~~~~~~~~~~~~~~~~~~~~~~~c$$$$$$$p~~~~~~~~~~~~~~~~~~~~~~~~~~~~~~~~~~~~~~~~d ",
" D~~~~~Q~~~~~~~~~~~~~~~~~~~~~~~~~~~~~~~~~c%$$$$$$$$qQ~~~~~~~~~~~~~~~~~~~~~~~~~~~~~~~~~~~~~~d ",
" D~~~~~~~~~~~~~~~~~~~~~~~~~~~~~~~~~~~~~~z$$$$$$$$$$$4T~~~~~~~~~~~~~~~~~~~~~~~~~~~~~~~~~~~~~d ",
" D~~~~~~~~~~~~~~~~~~~~~~~~~~~~~~~~~~~~Rq$$$$$$$$$$$$$:B~~~~~~~~~~~~~~~~~~~~~~~~~~~~~~~~~~~~d ",
" D~~~~~~~~~~~~~~~~~~~~~~~~~~~~~~~~~~Ql=$$$$$$$$$$$$$$$$tT~~~~~~~~~~~~~~~~~~~~~~~~~~~~~~~~~~d ",
" D~~~~~~~~~~~~~~~~~~~~~~~~~~~~~~~~~~~~n-$$$$$$$$$$$$$=b~~~~~~~~~~~~~~~~~~~~~~~~~~~~~~~~~~~~d ",
" D~~~~~~~~~~~~~~~~~~~~~~~~~~~~~~~~~~~~~Y2$$$$$$$$$$$3Y~~~~~~~~~~~~~~~~~~~~~~~~~~~~~~~~~~~~~d ",
" D~~~~~~~~~~~~~~~~~~~~~~~~~~~~~~~~~~~~~~Qt$$$$$$$$$3R~~~~~~~~~~~~~~~~~~~~~~~~~~~~~~~~~~~~~~d ",
" D~~~~~~~~~~~~~~~~~~~~~~~~~~~~~~~~~~~~~~~~p$$$$$$$7Q~~~~~~~~~~~~~~~~~~~~~~~~~~~~~~~~~~~~~~~d ",
" D~~~~~~~~~~~~~~~~~~~~~~P~~~~~~~~~~~~~~~~~!t$$$$$1Q~~~~~~~~~~~~~~~~~P~~~~~~~~~~~~~~~~~~~~~~d ",
" D~~~~~~~~~~~~~~~~~~~~~~qQ~~~~~~~~~~~~~~~~~~e$$$*L~~~~~~~~~~~~~~~~~~9!~~~~~~~~~~~~~~~~~~~~~d ",
" D~~~~~~~~~~~~~~~~~~~~~V$j~~~~~~~~~~~~~~~~~~Q,$$b~~~~~~~~~~~~~~~~~~b$x~~~~~~~~~~~~~~~~~~~~~d ",
" D~~~~~~~~~~~~~~~~~~~~R:$%P~~~~~~~~~~~~~~~~~~C$r~~~~~~~~~~~~~~~~~~Y=$=T~~~~~~~~~~~~~~~~~~~~d ",
" D~~~~~~~~~~~~~~~~~~~~9$$$1Q~~~~~~~~~~~~~~~~~~8T~~~~~~~~~~~~~~~~~!4$$$7!~~~~~~~~~~~~~~~~~~~d ",
" D~~~~~~~~~~~~~~~~~~~s$$$$$0!~~~~~~~~~~~~~~~~~J~~~~~~~~~~~~~~~~~~u$$$$$r!~~~~~~~~~~~~~~~~~~d ",
" D~~~~~~~~~~~~~~~~~~z$$$$$$$q!~~~~~~~~~~~~~~~~~~~~~~~~~~~~~~~~~~h$$$$$$$t~~~~~~~~~~~~~~~~~~d ",
" D~~~~~~~~~~~~~~~~~l$$$$$$$$$7T~~~~~~~~~~~~~~~~~~~~~~~~~~~~~~~~h$$$$$$$$$9Q~~~~~~~~~~~~~~~~d ",
" D~~~~~~~~~~~~~~~~j$$$$$$$$$$$,P~~~~~~~~~~~~~~~~~~~~~~~~~~~~~!p$$$$$$$$$$$2Y~~~~~~~~~~~~~~~d ",
" D~~~~~~~~~~~~~~Y8$$$$$$$$$$$$$*z~~~~~~~~~~~~~~~~~~~~~~~~~~~P5$$$$$$$$$$$$$=b~~~~~~~~~~~~~~d ",
" D~~~~~~~~~~~~Qz%$$$$$$$$$$$$$$$$eY~~~~~~~~~~~~~~~~~~~~~~~Qk$$$$$$$$$$$$$$$$$uT~~~~~~~~~~~~d ",
" D~~~~~~~~~~~~~~F<$$$$$$$$$$$$$-B~~~~~~~~~~~~~~~~~~~~~~~~~~~V>$$$$$$$$$$$$$>F~~~~~~~~~~~~~~d ",
" D~~~~~~~~~~~~~~~R0$$$$$$$$$$$5R~~~~~~~~~~~~~~~~~~~~~~~~~~~~~T7$$$$$$$$$$$0E~~~~~~~~~~~~~~~d ",
" D~~~~~~~~~~~~~~~~~s$$$$$$$$$7Q~~~~~~~~~~~~~~~~~~~~~~~~~~~~~~~!i$$$$$$$$$q!~~~~~~~~~~~~~~~~d ",
" D~~~~~~~~~~~~~~~~~~l$$$$$$$8Q~~~~~~~~~~~~~~~~~~~~~~~~~~~~~~~~~~s$$$$$$$q~~~~~~~~~~~~~~~~~~d ",
" D~~~~~~~~~~~~~~~~~~~s$$$$$2Q~~~~~~~~~~~~~~~~~~~~~~~~~~~~~~~~~~~~u$$$$$5!~~~~~~~~~~~~~~~~~~d ",
" D~~~~~~~~~~~~~~~~~~~~i$$$*P~~~~~~~~~~~~~~~~~~~~~~~~~~~~~~~~~~~~~~e$$$-T~~~~~~~~~~~~~~~~~~~d ",
" D~~~~~~~~~~~~~~~~~~~~!4$$M~~~~~~~~~~~~~~~~~~~~~~~~~~~~~~~~~~~~~~~Q<$$C~~~~~~~~~~~~~~~~~~~~d ",
" D~~~~~~~~~~~~~~~~~~~~~K%t~~~~~~~~~~~~~~~~~~~~~~~~~~~~~~~~~~~~~~~~~C$s~~~~~~~~~~~~~~~~~~~~~d ",
" D~~~~~~~~~~~~~~~~~~~~~~eT~~~~~~~~~~~~~~~~~~~~~~~~~~~~~~~~~~~~~~~~~~qR~~~~~~~~~~~~~~~~~~~~~d ",
" D~~~~~~~~~~~~~~~~~~~~~~K~~~~~~~~~~~~~~~~~~~~~~~~~~~~~~~~~~~~~~~~~~~K~~~~~~~~~~~~~~~~~~~~~~d ",
" D~~~~~~~~~~~~~~~~~~~~~~~~~~~~~~~~~~~~~~~~~~~~~~~~~~~~~~~~~~~~~~~~~~~~~~~~~~~~~~~~~~~~~~~~~d ",
" D~~~~~~~~~~~~~~~~~~~~~~~~~~~~~~~~~~~~~~~~~~~~~~~~~~~~~~~~~~~~~~~~~~~~~~~~~~~~~~~~~~~~~~~~~d ",
" D~~~~~~~~~~~~~~~~~~~~~~~~~~~~~~~~~~~~~~~~~~~~~~~~~~~~~~~~~~~~~~~~~~~~~~~~~~~~~~~~~~~~~~~~~d ",
" D~~~~~~~~~~~~~~~~~~~~~~~~~~~~~~~~~~~~~~~~~~~~~~~~~~~~~~~~~~~~~~~~~~~~~~~~~~~~~~~~~~~~~~~~~d ",
" D~~~~~~~~~~~~~~~~~~~~~~~~~~~~~~~~~~~~~~~~~~~~~~~~~~~~~~~~~~~~~~~~~~~~~~~~~~~~~~~~~~~~~~~~~d ",
" D~~~~~~~~~~~~~~~~~~~~~~~~~~~~~~~~~~~~~~~~~~~~~~~~~~~~~~~~~~~~~~~~~~~~~~~~~~~~~~~~~~~~~~~~~d ",
" D~~~~~~~~~~~~~~~~~~~~~~~~~~~~~~~~~~~~~~~~~~~~~~~~~~~~~~~~~~~~~~~~~~~~~~~~~~~~~~~~~~~~~~~~~d ",
" D~~~~~~~~~~~~~~~~~~~~~~~~~~~~~~~~~~~~~~~~~~~~~~~~~~~~~~~~~~~~~~~~~~~~~~~~~~~~~~~~~~~~~~~~~d ",
" D~~~~~~~~~~~~~~~~~~~~~~~~~~~~~~~~~~~~~~~~~~~~~~~~~~~~~~~~~~~~~~~~~~~~~~~~~~~~~~~~~~~~~~~~~d ",
" D~~~~~~~~~~~~~~~~~~~~~~Q~~~~~~~~~~~~~~~~~~~~~~~~~~~~~~~~~~~~~~~~~~~Q~~~~~~~~~~~~~~~~~~~~~~d ",
" D~~~~~~~~~~~~~~~~~~~~~~k~~~~~~~~~~~~~~~~~~~~~~~~~~~~~~~~~~~~~~~~~~~k~~~~~~~~~~~~~~~~~~~~~~d ",
" D~~~~~~~~~~~~~~~~~~~~~P%G~~~~~~~~~~~~~~~~~~~~~~~~~~~~~~~~~~~~~~~~~P%J~~~~~~~~~~~~~~~~~~~~~d ",
" D~~~~~~~~~~~~~~~~~~~~~9$2!~~~~~~~~~~~~~~~~~~~~~~~~~~~~~~~~~~~~~~~!8$3!~~~~~~~~~~~~~~~~~~~~d ",
" D~~~~~~~~~~~~~~~~~~~~j$$$s~~~~~~~~~~~~~~~~~~~~~~~~~~~~~~~~~~~~~~~h$$$h~~~~~~~~~~~~~~~~~~~~d ",
" D~~~~~~~~~~~~~~~~~~~C$$$$$z~~~~~~~~~~~~~~~~~~~~~~~~~~~~~~~~~~~~~B$$$$$z~~~~~~~~~~~~~~~~~~~d ",
" D~~~~~~~~~~~~~~~~~~P=$$$$$$n~~~~~~~~~~~~~~~~~~~~~~~~~~~~~~~~~~~K=$$$$$$m~~~~~~~~~~~~~~~~~~d ",
" D~~~~~~~~~~~~~~~~~I:$$$$$$$%n~~~~~~~~~~~~~~~~~~~~~~~~~~~~~~~~~J=$$$$$$$%n~~~~~~~~~~~~~~~~~d ",
" D~~~~~~~~~~~~~~~~P:$$$$$$$$$$i!~~~~~~~~~~~~~~~~~~~~~~~~~~~~~~J=$$$$$$$$$$p~~~~~~~~~~~~~~~~d ",
" D~~~~~~~~~~~~~~~v*$$$$$$$$$$$$0R~~~~~~~~~~~~~~~~~~~~~~~~~~~~c&$$$$$$$$$$$$qE~~~~~~~~~~~~~~d ",
" D~~~~~~~~~~~~QM8$$$$$$$$$$$$$$$-lT~~~~~~~~~~~~~~~~~~~~~~~QM8$$$$$$$$$$$$$$$=lT~~~~~~~~~~~~d ",
" D~~~~~~~~~~~~~Pr$$$$$$$$$$$$$$$eK~~~~~~~~~~~~~~~~~~~~~~~~~Pe$$$$$$$$$$$$$$$eL~~~~~~~~~~~~~d ",
" D~~~~~~~~~~~~~~~M*$$$$$$$$$$$*m~~~~~~~~~~~~~~~~~~~~~~~~~~~~~M*$$$$$$$$$$$=m~~~~~~~~~~~~~~~d ",
" D~~~~~~~~~~~~~~~~L,$$$$$$$$$=H~~~~~~~~~~~~~~~~~~~~~~~~~~~~~~~K,$$$$$$$$$=H~~~~~~~~~~~~~~~~d ",
" D~~~~~~~~~~~~~~~~~T3$$$$$$$-J~~~~~~~~~~~~~~~~~~~~~~~~~~~~~~~~~Y3$$$$$$$-K~~~~~~~~~~~~~~~~~d ",
" D~~~~~~~~~~~~~~~~~~Q4$$$$$*K~~~~~~~~~~~~~~~~~~~~~~~~~~~~~~~~~~~Q3$$$$$*K~~~~~~~~~~~~~~~~~~d ",
" D~~~~~~~~~~~~~~~~~~~R<$$$$n~~~~~~~~~~~~~~~~~~~~~~~~~~~~~~~~~~~~~R<$$$$m~~~~~~~~~~~~~~~~~~~d ",
" D~~~~~~~~~~~~~~~~~~~~P*$$p~~~~~~~~~~~~~~~~~~~~~~~~~~~~~~~~~~~~~~~K*$$p~~~~~~~~~~~~~~~~~~~~d ",
" D~~~~~~~~~~~~~~~~~~~~~k$3!~~~~~~~~~~~~~~~~~~~~~~~~~~~~~~~~~~~~~~~~k$4!~~~~~~~~~~~~~~~~~~~~d ",
" D~~~~~~~~~~~~~~~~~~~~~!,G~~~~~~~~~~~~~~~~~~~~~~~~~~~~~~~~~~~~~~~~~!,H~~~~~~~~~~~~~~~~~~~~~d ",
" D~~~~~~~~~~~~~~~~~~~~~~M~~~~~~~~~~~~~~~~~~~~~~~~~~~~~~~~~~~~~~~~~~~M~~~~~~~~~~~~~~~~~~~~~~d ",
" D~~~~~~~~~~~~~~~~~~~~~~!~~~~~~~~~~~~~~~~~~~~~~~~~~~~~~~~~~~~~~~~~~~!~~~~~~~~~~~~~~~~~~~~~~d ",
" D~~~~~~~~~~~~~~~~~~~~~~~~~~~~~~~~~~~~~~~~~~~~~~~~~~~~~~~~~~~~~~~~~~~~~~~~~~~~~~~~~~~~~~~~~d ",
" D~~~~~~~~~~~~~~~~~~~~~~~~~~~~~~~~~~~~~~~~~~~~~~~~~~~~~~~~~~~~~~~~~~~~~~~~~~~~~~~~~~~~~~~~~d ",
" D~~~~~~~~~~~~~~~~~~~~~~~~~~~~~~~~~~~~~~~~~~~~~~~~~~~~~~~~~~~~~~~~~~~~~~~~~~~~~~~~~~~~~~~~~d ",
" D~~~~~~~~~~~~~~~~~~~~~~~~~~~~~~~~~~~~~~~~~~~~~~~~~~~~~~~~~~~~~~~~~~~~~~~~~~~~~~~~~~~~~~~~~d ",
" D~~~~~~~~~~~~~~~~~~~~~~~~~~~~~~~~~~~~~~~~~~~~~~~~~~~~~~~~~~~~~~~~~~~~~~~~~~~~~~~~~~~~~~~~~d ",
" D~~~~~~~~~~~~~~~~~~~~~~~~~~~~~~~~~~~~~~~~~~~~~~~~~~~~~~~~~~~~~~~~~~~~~~~~~~~~~~~~~~~~~~~~~d ",
" D~~~~~~~~~~~~~~~~~~~~~~~~~~~~~~~~~~~~~~~~~~~~~~~~~~~~~~~~~~~~~~~~~~~~~~~~~~~~~~~~~~~~~~~~~d ",
" D~~~~~~~~~~~~~~~~~~~~~~~~~~~~~~~~~~~~~~~~~~~~~~~~~~~~~~~~~~~~~~~~~~~~~~~~~~~~~~~~~~~~~~~~~d ",
" D~~~~~~~~~~~~~~~~~~~~~~Y~~~~~~~~~~~~~~~~~~~~~~~~~~~~~~~~~~~~~~~~~~~Y~~~~~~~~~~~~~~~~~~~~~~d ",
" D~~~~~~~~~~~~~~~~~~~~~~p~~~~~~~~~~~~~~~~~~~~~~~~~~~~~~~~~~~~~~~~~~~p~~~~~~~~~~~~~~~~P~~~~~d ",
" D~~~~~~~~~~~~~~~~~~~~~H$N~~~~~~~~~~~~~~~~~~~~~~~~~~~~~~~~~~~~~~~~~G$B~~~~~~~~~~~~~~B0~~~~~d ",
" D~~~~~~~~~~~~~~~~~~~~Q3$:Q~~~~~~~~~~~~~~~~~~~~~~~~~~~~~~~~~~~~~~~Q1$>Q~~~~~~~~~~~~P=$h~~~~d ",
" D~~~~~~~~~~~~~~~~~~~~t$$$e~~~~~~~~~~~~~~~~~~~~~~~~~~~~~~~~~~~~~~~r$$$r~~~~~~~~~~~P>$$$s~~~d ",
" D~~~~~~~~~~~~~~~~~~~x$$$$$p~~~~~~~~~~~~~~~~~~~~~~~~~~~~~~~~~~~~~z$$$$$p~~~~~~~~~M=$$$$$qQ~d ",
" D~~~~~~~~~~~~~~~~~~V&$$$$$$h~~~~~~~~~~~~~~~~~~~~~~~~~~~~~~~~~~~B%$$$$$$j~~~~~~~~~x%$$$9E~~d ",
" D~~~~~~~~~~~~~~~~~F*$$$$$$$$s!~~~~~~~~~~~~~~~~~~~~~~~~~~~~~~~~M%$$$$$$$$h~~~~~~~~~B%$9Q~~~d ",
" D~~~~~~~~~~~~~~~~M&$$$$$$$$$$qQ~~~~~~~~~~~~~~~~~~~~~~~~~~~~~~m%$$$$$$$$$$qQ~~~~~~~~z>R~~~~d ",
" D~~~~~~~~~~~~~~Qs$$$$$$$$$$$$$<K~~~~~~~~~~~~~~~~~~~~~~~~~~~Qp$$$$$$$$$$$$$1K~~~~~~~~V~~~~~d ",
" D~~~~~~~~~~~~Qz,$$$$$$$$$$$$$$$$pT~~~~~~~~~~~~~~~~~~~~~~~Qz,$$$$$$$$$$$$$$$%pR~~~~~~~~~~~~d ",
" D~~~~~~~~~~~~~Qj&$$$$$$$$$$$$$%jQ~~~~~~~~~~~~~~~~~~~~~~~~~Qj%$$$$$$$$$$$$$%kQ~~~~~~~~~~~~~d ",
" D~~~~~~~~~~~~~~~K,$$$$$$$$$$$,K~~~~~~~~~~~~~~~~~~~~~~~~~~~~~K,$$$$$$$$$$$<K~~~~~~~~~~~~~~~d ",
" D~~~~~~~~~~~~~~~~Q7$$$$$$$$$,Y~~~~~~~~~~~~~~~~~~~~~~~~~~~~~~~T5$$$$$$$$$<T~~~~~~~~~~~~~~~~d ",
" D~~~~~~~~~~~~~~~~~Qw$$$$$$$<T~~~~~~~~~~~~~~~~~~~~~~~~~~~~~~~~~Qw$$$$$$$1T~~~~~~~~~~~~~~~~~d ",
" D~~~~~~~~~~~~~~~~~~~w$$$$$:T~~~~~~~~~~~~~~~~~~~~~~~~~~~~~~~~~~~!q$$$$$>R~~~~~~~~~~~m1%7V~~d ",
" D~~~~~~~~~~~~~~~~~~~!7$$$%G~~~~~~~~~~~~~~~~~~~~~~~~~~~~~~~~~~~~~!5$$$%H~~~~~~~~~~~M=HT3$~~d ",
" D~~~~~~~~~~~~~~~~~~~~T:$$z~~~~~~~~~~~~~~~~~~~~~~~~~~~~~~~~~~~~~~~T;$$z~~~~~~~~~~~~:j~~M$~~d ",
" D~~~~~~~~~~~~~~~~~~~~~n$0~~~~~~~~~~~~~~~~~~~~~~~~~~~~~~~~~~~~~~~~~v$q~~~~~~~~~~~~V$F~~T$~~d ",
" D~~~~~~~~~~~~~~~~~~~~~~3P~~~~~~~~~~~~~~~~~~~~~~~~~~~~~~~~~~~~~~~~~~3P~~~~~~~~~~~~s$T~~~~~~d ",
" D~~~~~~~~~~~~~~~~~~~~~~F~~~~~~~~~~~~~~~~~~~~~~~~~~~~~~~~~~~~~~~~~~~F~~~~~~~~~~~~~0$Q~~~~~~d ",
" D~~~~~~~~~~~~~~~~~~~~~~~~~~~~~~~~~~~~~~~~~~~~~~~~~~~~~~~~~~~~~~~~~~~~~~~~~~~~~~~~<$z1*7P~~d ",
" D~~~~~~~~~~~~~~~~~~~~~~~~~~~~~~~~~~~~~~~~~~~~~~~~~~~~~~~~~~~~~~~~~~~~~~~~~~~~~~~~=$2TY2:Q~d ",
" D~~~~~~~~~~~~~~~~~~~~~~~~~~~~~~~~~~~~~~~~~~~~~~~~~~~~~~~~~~~~~~~~~~~~~~~~~~~~~~~~%$m~~m$l~d ",
" D~~~~~~~~~~~~~~~~~~~~~~~~~~~~~~~~~~~~~~~~~~~~~~~~~~~~~~~~~~~~~~~~~~~~~~~~~~~~~~~~$$P~~P$7~d ",
" D~~~~~~~~~~~~~~~~~~~~~~~~~~~~~~~~~~~~~~~~~~~~~~~~~~~~~~~~~~~~~~~~~~~~~~~~~~~~~~~~%$Q~~Q$:~d ",
" D~~~~~~~~~~~~~~~~~~~~~~~~~~~~~~~~~~~~~~~~~~~~~~~~~~~~~~~~~~~~~~~~~~~~~~~~~~~~~~~~=$~~~!$%~d ",
" D~~~~~~~~~~~~~~~~~~~~~~~~~~~~~~~~~~~~~~~~~~~~~~~~~~~~~~~~~~~~~~~~~~~~~~~~~~~~~~~~2$~~~~$%~d ",
" D~~~~~~~~~~~~~~~~~~~~~~~~~~~~~~~~~~~~~~~~~~~~~~~~~~~~~~~~~~~~~~~~~~~~~~~~~~~~~~~~e$Q~~Q$:~d ",
" D~~~~~~~~~~~~~~~~~~~~~~~~~~~~~~~~~~~~~~~~~~~~~~~~~~~~~~~~~~~~~~~~~~~~~~~~~~~~~~~~z$I~~P$9~d ",
" A~~~~~~~~~~~~~~~~~~~~~~~~~~~~~~~~~~~~~~~~~~~~~~~~~~~~~~~~~~~~~~~~~~~~~~~~~~~~~~~~T%m~~m$l~# ",
" +~~~~~~~~~~~~~~~~~~~~~~~~~~~~~~~~~~~~~~~~~~~~~~~~~~~~~~~~~~~~~~~~~~~~~~~~~~~~~~~~~h3TY3,QWX ",
"^ dW~~~~~~~~~~~~~~~~~~~~~~~~~~~~~~~~~~~~~~~~~~~~~~~~~~~~~~~~~~~~~~~~~~~~~~~~~~~~~~~~j:&0YUO ^",
"^^  ....................................................................................   ^^"
};
