/* XPM */
static char *_122f85d25d84dd28e5d906fb1adcde9tK2H6vMpnFEwMqB4[] = {
/* columns rows colors chars-per-pixel */
"92 134 71 1 ",
"  c None",
". c #000000",
"X c #0B0B0B",
"o c #151515",
"O c gray10",
"+ c gray14",
"@ c #2D2D2D",
"# c #4E4E4E",
"$ c gray33",
"% c #6F7070",
"& c #0062FF",
"* c #046AFF",
"= c #0A6DFF",
"- c #0D71FF",
"; c #1474FF",
": c #1A76FF",
"> c #1E79FF",
", c #237BFF",
"< c #297FFF",
"1 c #2D81FF",
"2 c #3485FF",
"3 c #3887FF",
"4 c #3D8AFF",
"5 c #438DFF",
"6 c #4790FF",
"7 c #4C92FF",
"8 c #5397FF",
"9 c #5699FF",
"0 c #5C9CFF",
"q c #619FFF",
"w c #66A2FF",
"e c #6BA5FF",
"r c #6EA8FF",
"t c #74ABFF",
"y c #79AEFF",
"u c #7EB1FF",
"i c #818181",
"p c #8E8E8E",
"a c #9D9D9D",
"s c gray64",
"d c #ADAEAE",
"f c #B1B2B2",
"g c gray72",
"h c #83B4FF",
"j c #89B7FF",
"k c #8DB9FF",
"l c #94BEFF",
"z c #9CC2FF",
"x c #A1C6FF",
"c c #A6C9FF",
"v c #AACBFF",
"b c #B1CFFF",
"n c #B4D1FF",
"m c #BBD6FF",
"M c #BFD8FF",
"N c #C1C1C1",
"B c #DEDEDE",
"V c #C4DBFF",
"C c #C9DEFF",
"Z c #CDE1FF",
"A c #D3E4FF",
"S c #D8E7FF",
"D c #DCEAFF",
"F c #ECECEC",
"G c #E3EEFF",
"H c #E7F0FF",
"J c #EEF5FF",
"K c #F3F3F3",
"L c #F2F7FF",
"P c #F5F9FF",
"I c #FFFFFF",
/* pixels */
" ..Xoooooooooooooooooooooooooooooooooooooooooooooooooooooooooooooooooooooooooooooooooooo..  ",
".$FIIIIIIIIIIIIIIIIIIIIIIIIIIIIIIIIIIIIIIIIIIIIIIIIIIIIIIIIIIIIIIIIIIIIIIIIIIIIIIIIIIIIIK%. ",
"@IIIIIIIIIIIIIIIIIIIIIIIIIIIIIIIIIIIIIIIIIIIIIIIIIIIIIIIIIIIIIIIIIIIIIIIIIIIIIIIIIIIIIIIII#.",
"pIIIPZZZZZCZZZZZZZZZZZZCZZZZZZZZZZCCCZZZZZZZZZZCZZZZZZZZZZCCZZZZZZZZZZZCZZZZZZZZZZCZCCJIIIf.",
"aIIG;&&&&&&&&&&&&&&&&&&&&&&&&&&&&&&&&&&&&&&&&&&&&&&&&&&&&&&&&&&&&&&&&&&&&&&&&&&&&&&&&&*CIIN.",
"aIIl&&&&&&&&&&&&&&&&&&&&&&&&&&&&&&&&&&&&&&&&&&&&&&&&&&&&&&&&&&&&&&&&&&&&&&&&&&&&&&&&&&&eIIN.",
"aIIh&&&:ryyyyyyyyyyyytyyyyyyytytyyyhyyyyyyyyytyyytyyyyytyyyyyytyyyyyyyytyyyyytytyyy<&&&0IIN.",
"aIIh&&;AreqqeqwwwtwwqewthywwwwweyqqqqqyhywwwqewtqewwwyhywwwqeqtewwwwthteeqwwwwweeqeC2&&0IIN.",
"aIIh&&r9&<ry5&&&&4;&&,<2,55<<2>&5-&&,<2,57<<<:&5-&&<12<55<,3>&5=&&<1<<55<<1:&&1ry4&2l&&0IIN.",
"aIIh&&h5<yr,t&,<&&r3221=><qe<9t;&r223<=,<qq<0t;&r2<2<*><ew<0r=&t2111*,<eq<10=&946k3:v&&0IIN.",
"aIIh&&h7re*e,&&91<5y6=112<;5<&00<7y6*<2<<;5,&00<7y6=<221;6,&00<6y5-122<;7;&&<&=35004v&&0IIN.",
"aIIh&&h9r*79&&&&<,==46<<*&&&5&&,,==57<<*&&&5&&<<*-46<<*&&&4&*<,*;45<<&&&&5&&&&&2u,79c&&0IIN.",
"aIIh&&u59q4&3jkkjjjjjjjjjjjjjhjjjjjkkkkkkkkkljjlkjhjjjjjjjjjjjjjjjjjkjjjjjjjkj9&:qw>v&&0IIN.",
"aIIh&&h5&,<&y8<<2<12<221<2<212<22<<2<<<<2<<<<<<<<221<2<2<2212<211112<22<<2<22<x&*9*:v&&0IIN.",
"aIIh&&h5;q*&y,&&&&&&&&&&&&&&&&&&&&&&&&&&&&&&&&&&&&&&&&&&&&&&&&&&&&&&&&&&&&&&&&x*9*&:v&&0IIN.",
"aIIh&&h5<<&&y,&bZZZCZCACCAZZZZZZZZZZZAZZZZZAZZCAZZCAZZZZZZCACZCAZZZZZCACCACA&&x<<&&;c&&0IIN.",
"aIIh&&y5,<;5y,&z&&&&&&&&&&&&&&&&&&&&&&&&&&&&&&&&&&&&&&&&&&&&&&&&&&&&&&&&&&&l&&x,2*8<v&&qIIN.",
"aIIh&&h5<08&y<&z&5Vv<&r,*yVGk&&&&&&&&&&&&&&&&&&&&&&&&&&&&&&&&&*cSMw&58&5mn,l*&x&9t*:c&&0IIN.",
"aIIh&&h53e:&y,&z&jVhD8CmZvq<I2&&&&&&&&&&&&&&&&&&&&&&&&&&&&&&&&qL;rVnZvtChD0l&&x;t<&;c&&0IIN.",
"aIIh&&h98<<&y,&z&6ZjlvcVkS3&,&&VV*-Cn&,Vb&<Cl&6Zh&0Ze&tZ9&jC5&&>&9CxzClvrJ,l*&z432*:v&&0IIN.",
"aIIh&&hq<,2&y,&z&&vrVm56lj&&&&:mb,2xV*8lC&ejV&hyn&ltv&vyl&myh&&&&&bt68Vnlh&l*&x3,<<:v&&qIIN.",
"aIIh&&h82=<<y,&z&&;AqmjvGu<&&&&56&&84&&0<&&q<&*q,&=q-&;q*&,q&&&&&3lClcmrV*&l&&x<<<<:c&&0IIN.",
"aIIh&&h5<<<2y,&z&7Il6<hxII<&&&&&*&&&&&&*&&&&&&&&&&&&&&&&&&&&&&&*&9IIky,9bP<l*&x,3&<5c&&0IIN.",
"aIIh&&h5,2*8y,&z&&8I7jPmJV*CC>*CC=:CC&<CV&5Cv&9Cl&eCh&jZe&lC8&bC5,VGVPreP2&l&&x&<<<5v&&0IIN.",
"aIIh&&h5&<56y,&z&&ClAPIJ0x*Cv2;Vm><bV*5xC&qlV&ykn&lhx&chk&bky&Vl0,yyLPImvx&l*&x&<<8<v&&0PIN.",
"aIIh&&h5&<y;y,&x&7mb0=Dnxx,,3&&<2&&3<&&5,&&6;&&7=&&7*&*7*&;6&&;5&5vzMC*tlD,l&&z&*y6;v&&0IIN.",
"aIIh&&h5*e7;y,&l&j94&&&&;&&*-&&**&&**&&-*&&;&&&;&&&:&&&:&&&;&&*-&&*=&&&&5hql&&x&q8<;c&&qIIN.",
"aIIh&&u87*<<y,&x&kx,&&&VM3*VC,=CC-,VC*2VV&6Mn&qmc&hbk&lnt&vm0&mm6&CV2&&&2mql*&x2*<<:c&&0IIN.",
"aIIh&&h5&*9<y,&z&,Hq&&&Cb5*Cn<;CV;,MC*4bV&9vM&txv&jzl&zzh&vxe&Mv9&Cn4&&&hS=l&&x&*e3;v&&0IIN.",
"aIIh&&h5:eq&y,&z&&&&&&&=<&&;,&&;>&&,;&&<;&&1*&&2*&&2*&&3&&*2&&*2&&=<&&&&&&&l*&x*qr-;v&&0IIN.",
"aIIh&&u5<0&&y,&z&&&*<&&=<&&-,&&>>&&,;&&<=&&<*&&2*&&3&&&3&&*2&&*<&&=<&&;>&&&l&&x<6&&>v&&0IIN.",
"aIIh&&h5<<;5h,&z&&&nvq&Vb5*Cm<;VV;,mC*5nC&9vM&rxv&hxz&zxj&vxe&Vc9&Cn4*CM,&&l*&z,<=0<c&&qIIN.",
"aIIh&&h5,q8&y,&l&&&bn9&Cm3&CV,=ZV;>VC*2VV&7mb&qnc&hbl&kbh&cbq&nM6&VV2*CC>&&l*&x&9t&;c&&0IIN.",
"aIIh&&h53e;&y,&x&&&&:&&&;&&*=&&==&&=*&&-*&&;*&&;&&&;&&&:&&&:&&&;&&*-&&*=&&&l*&z>t2&;v&&0IIN.",
"aIIh&&h86<<&y,&z&&&-6&&,5&&,3&&12&&3,&&5>&&6;&&8=&&7&&&8&&=7&&;6&&,5&&<3&&&l&&x4<3*>c&&0IIN.",
"aIIh&&hw<>3*y,&z&&&Vlq&Cx8*Cb2:Mm>1bC*6xC&qlV&ykb&ljv&vhl&nky&Vlq&Cx6*Cb<&&l&&x3,<<;v&&0IIN.",
"aIIh&&u92=<<y,&z&&&cC5&VV<&CC:*ZV=;CV&<Cm&4Cc&9Cl&wCh&hCq&lC9&bC4&MC,*CC;&&l&&x<<<2;v&&0IIN.",
"aIIh&&h5<<2<y,&z&&&&&&&&*&&&*&&&*&&*&&&*&&&*&&&&&&&&&&&&&&&&&&&&&&&&&&&&&&&l*&x,2*<5v&&0IIN.",
"aIIh&&h5,3&8y,&z&&&,q*&<0&&48&&55&&95&&92&&q<&*q:&=w;&;w=&,q&&<q&&29&&48&&&l&&z&<,<5v&&0IIN.",
"aIIh&&h5&<56y,&z&&&Vhr&Cl8*Vx3>nn,2xV*8lC&ejV&hyV&ltv&vtl&nhh&Vjw*Zl7=Vc2&&l&&x&228<v&&0IIN.",
"aIIh&&h5&2y-y,&l&&&lC3&vC,&mC-*VV*-Vm&,Cv&2Cl&6Zh&0Ce&eZ9&hC5&zC2&vC,*mV=&&l&&x&*t5;v&&qIIN.",
"aIIh&&h5*r7;y,&x&&&&&&&&&&&&&&&&&&&&&&&&&&&&&&&&&&&&&&&&&&&&&&&&&&&&&&&&&&&l*&x*q7<:v&&0IIN.",
"aIIh&&h86*<<y,&x&&&2y&&6t*&8e&&0q&&e8&&t5&*y3&=h<&;h,&,h;&<h=&<h*&5t&&9q&&&l&&x2*<<;c&&0IIN.",
"aIIh&&y5&=9<h,&l&&&Vyt&Zj9*Vl5>bv,4lV=8jC&ryC&heV&zqb&bqz&Veh&Vhe&Ck8=Vx4&&l*&x&*r3;v&&0IIN.",
"aIIh&&h5:rq&y,&l&&&hV<&lm;&cn=*bb**nv&:ml&,Vh&3Ve&7V0&qC6&tV<&kV,&zm;&vn*&&l&&x*qe-:c&&qIIN.",
"aIIh&&h529&&y,&z&&&&&&&&&&&&&&&&&&&&&&&&&&&&&&&&&&&&&&&&&&&&&&&&&&&&&&&&&&&l*&x,6&&;v&&0IIN.",
"aIIh&&h5<<:5y,&z&&&6l=&0k*&eh&&yy&&hq&*jq&=l7&;l4&,l<&<z>&4l;&8j*&0j*&ru&&&l&&x,<;9<c&&0IIN.",
"aIIh&&h5<q7&y<&z&&&Cey&Zy0*Vl5,vv,5lV=9hC&teC&jqV&x9n&n9z&Vqh&Ctt&Ch8;Ml3&&l*&x&0t&:v&&0IIN.",
"aIIh&&h53e;&y,&z&&&en,&hb;&lx*&xx&*xl&;vh&:bt&<nq&5n7&7V<&qV<&tb:&hv=&lx*&&l&&x:t<&>c&&0IIN.",
"aIIh&&h87<<&y,&z&&&&&&&&&&&&&&&&&&&&&&&&&&&&&&&&&&&&&&&&&&&&&&&&&&&&&&&&&&&l*&z522*;v&&0IIN.",
"aIIh&&hq<,<*h,&z&&&qc:&qx=&hl*&kl&&lh&*xt&&&&&&&&&<v5&5v<&8v,&qv;&yx*&hl*&&l&&x3,<<;c&&0IIN.",
"aIIh&&h9<;2<y,&l&&&Cqy&Ayq*Vl5,vx<5lM;9uC&&&&&&&&&x8b&n7z&Vqh&Zer&Ay8;Ml4&&l*&x<<<2;v&&qIIN.",
"aIIh&&h5<<<<y,&z&&&9c;&ql*&yl*&jj&*ly&*ze&&&&=&&&&<v<&5v<&7c:&qx-&rl*&hl*&&l&&x,2*<5c&&0IIN.",
"aIIh&&h5,3=8y<&z&&&&&&&&&&&&&&&&&&&&&&&&&&&:zkx,&&&&&&&&&&&&&&&&&&&&&&&&&&&l*&z&2<<6c&&qIIN.",
"aIIh&&y5&<55y,&z&&&tn,&jb;&lv*&xx&*vz&&&&6VCyVkVne&&&&9V5&qV<&yn>&kb;&zv*&&l&&x&<<7<v&&0IIN.",
"aIIh&&h5&<y;y,&z&&&Cey&Zh0*Vl5,vc<4lM-&&3lV:V7A=vb5&&&b9l&Vqh&Ctr&Ch9=Ml3&&l&&x&&y5:v&&0IIN.",
"aIIh&&h5*r6;y,&z&&&5k=&8h&&qh&&rt&&yq&&ym47A<&,Cq<vv&&<l,&3k;&6j*&9h*&qy&&&l&&x*q8<;v&&0IIN.",
"aIIh&&h85&<<y,&z&&&&&&&&&&&&&&&&&&&&&&6P*&-HG-AI>&&Gq&&&&&&&&&&&&&&&&&&&&&&l*&x<*<<;v&&0IIN.",
"aIIh&&h5&-0<y,&z&&&jV<&zV,&vV=&bm*&&&&kP;&57AvH68&=Hb&&&&&hV3&kV,&xV;&bm*&&l&&x&=r3;v&&0IIN.",
"aIIh&&h5;r0*y,&z&&&Vyt&Ch9=Cl5,nv,&&&&jr7&&&,M6&&&<el&&&&&Veh&Che&Ck8-Mx3&&l*&x*qr=:c&&qIIN.",
"aIIh&&y529&&y,&z&&&<y&&5e&&6q&&90&&&&<9rq&l&&;&&j&5qq5&&&&<y=&<y*&5e&&8q&&&l&&x,4&&:v&&0IIN.",
"aIIh&&h5<,>5y,&z&&&&&&&&&&&&&&&&&&&&,l&cx9Imr&0bPtcv&h5&&&&&&&&&&&&&&&&&&&&l*&x,2-9<v&&0IIN.",
"aIIh&&h5<q8&y,&x&&&lZ5&vC<&VC;*VV*&&t<&-le<&&4&&,8v:&*k&&&jC6&zC3&nC,&VC-&&l*&x&0t&:v&&0IIN.",
"aIIh&&h54q:&y,&l&&&Vje&Cl9&Cc3:mb,&&q59,D*8,&M;-q&Z59,h&&&nhh&Vkq&Zl7*Vb<&&l&&x>r<&;c&&0IIN.",
"aIIh&&h97<<&y,&z&&&,0&&<9&&27&&55&&-nItqG&7PqVeHe&Vh7IV,&&;q&&,q&&<9&&36&&&l&&x522*;v&&0IIN.",
"aIIh&&hq<:2=y,&z&&&&*&&&*&&&*&&**&&&ZIx=x&&0lrlh&&h<hIJ&&&&=&&&&&&&*&&&*&&&l&&x3,<<:v&&0IIN.",
"aIIh&&h82-<<y<&z&&&vC5&mC<&CC;*ZV*&9hvA,*4MSe&9AV9*:Vbhe&&xV9&bC5&VC,*CC;&&l&&x<<<2;v&&0IIN.",
"aIIh&&y5<<<<y,&z&&&Mle&Cx7*Cb2;VM>&3VGZ*<;lAy*qSx,<*bHV9&&blt&Vz0&Zc5=Cb<&&l*&x,3*<5v&&qIIN.",
"aIIh&&h5,3*8h,&z&&&-6&&>5&&,3&&<1&&*SIl;m&&hmlnx&&l4rIH=&&=7&&:5&&,4&&,3&&&l&&x&<<<6c&&0IIN.",
"aIIh&&h5&<55y,&l&&&&;&&*;&&*-&&==&&*jGhuJ&yS<V5Vl&CxqGx;&&&,&&&:&&*;&&=-&&&l*&x&2<8<v&&0IIN.",
"aIIh&&h5&3y;y,&z&&&nm7&Vm3*CV,-CC-&&e:,&m=,&&b*&,&V*,&h&&&cbq&nV6&CV<*CC>&&l&&z&&y5:v&&0IIN.",
"aIIh&&h5=e6;y,&z&&&mv0&Cb5*CM<;VV;&&w5&2xkr;&;&=qhv6&:j&&&bvq&Vb7&Cn4*CV,&&l*&x*q7<:c&&0IIN.",
"aIIh&&h85&<<y,&x&&&*<&&=<&&;,&&;;&&&=c;cv1Ixr&0lP7cx>z,&&&&<&&=,&&=,&&->&&&l&&x<*,<:v&&0IIN.",
"aIIh&&h5&;0<y,&l&&&*3&&-<&&;,&&>,&&&&*q9<&9&&7&&8&:5h*&&&&&4&&=<&&;<&&>,&&&l*&x&=t3;v&&0IIN.",
"aIIh&&y5>rq&y,&x&&&nxq&Cv5*Cm<-CV;&&&&kcq&&&8Vy&&&5vx&&&&&bzt&Vc9&Cb4*Cm,&&l&&x*qe=;c&&0IIN.",
"aIIh&&h5<8&&y,&l&&&bV7&VV2*CV,=CC=&&&&jP&&8lHkPkr&&Sc&&&&&cVq&bV5&CV<*CC;&&l*&x<5&&>v&&qIIN.",
"aIIh&&h5<<,5h,&z&&&&=&&&-&&**&&**&&&&&,P;&&Gm&lI*&*H5&&&&&&=&&&=&&**&&**&&&l&&x,2;9<v&&0IIN.",
"aIIh&&h5<q6&y,&z&&&;7&&,5&&<5&&22&&5,&&7Ahkc3&2kxyA0&&*9&&;9&&>7&&,6&&<5&&&l*&x&0r&;v&&0IIN.",
"aIIh&&h55q:&y,&z&&&Vlq&Cz8*Cv2:Vn><bV=&&*eV5VhG2xk*&&&vhk&Vkh&Vlq&Cx5=Vb<&&l&&x,r1&:v&&0IIN.",
"aIIh&&y97<<&y,&l&&&cC5&mC<&VC:*CC*;CC&&&&3hbtztmt9&&&&hCq&kC6&bC3&VC,&CC:&&l*&l513*;c&&0IIN.",
"aIIh&&he,;2*y,&l&&&&&&&&&&&&&&&&&&&&&&&&&&&&ylh*&&&&&&&&&&&&&&&&&&&&&&&*&&&l&&x3><<;v&&0IIN.",
"aIIh&&h72;2<y,&x&&&<q&&2q&&59&&78&&95&&q2&&&&&&&&&=e:&:e=&<e&&<e&&3q&&59&&&l&&x<1<2:v&&0IIN.",
"aIIh&&u5<<<<y,&z&&&Vhr&Cl9*Cz4:mb,2cV*8lC&&&&&&&&&zev&bel&Vth&Vhq&Cl7=Mx2&&l*&x>3*15v&&0IIN.",
"aIIh&&h5,2*9y,&z&&&lC2&cV,&bV-*MV*=Vn&>Vv&&&&&&&&&8Cw&eC8&hC4&zV1&vV>*nV=&&l&&x&<<<5v&&0IIN.",
"aIIh&&h5&<65y,&z&&&&&&&&&&&&&&&&&&&&&&&&&&&&&&&&&&&&&&&&&&&&&&&&&&&&&&&&&&&l&&x&<28<c&&0IIN.",
"aIIh&&u5&3y-y,&z&&&3h&&7y&&9r&&qq&&t9&&y7&*y4&=h<&:j>&<h:&<h;&4h*&7y&&0r&&&l*&x&*y5;v&&0IIN.",
"aIIh&&h5;e6;y,&l&&&Vtt&Ch9*Cl5,nc,5lV=9jC&eyC&jqV&xqb&nql&Vwh&Ztr&Cj8;Mz3&&l&&x=e6<;c&&0IIN.",
"aIIh&&h84&<<y,&x&&&hV,&km;&xm*&vb**bx&;ml&,Vh&3Vw&6V9&0V5&eV<&jV,&ln;&xb*&&l*&x<&<<;v&&0IIN.",
"aIIh&&y5&;0<y,&z&&&&&&&&&&&&&&&&&&&&&&&&&&&&&&&&&&&&&&=&&&&&&&&&&&&&&&&&&&&l*&x&-r3;v&&0PIN.",
"aIIh&&h5>t0&y,&z&&&7l;&ql*&ek&&yy&&jr&&kq&-l8&:z5&,z<&<z<&5l:&9l=&ql*&tj&&&l&&z*ee=;v&&0IIN.",
"aIIh&&h5<8&&y,&z&&&Cqy&Ay0=Vk6,bc<4lV=0hC&eeC&jqV&c9n&n9z&Vqh&Ctr&Ch9;ml3&&l*&x<4&&>c&&qIIN.",
"aIIh&&h5<<,5y,&z&&&qn,&yv-&kx**lz&*xl&=vh&:be&<bq&<n7&7b<&qv<&eb;&hv*&lx&&&l&&x,2;0<c&&0IIN.",
"aIIh&&h5<e5&y,&x&&&&&&&&&&&&&&&&&&&&&&&&&&&&&&&&&&&&&&&&&&&&&&&&&&&&&&&&&&&l&&x&0e&;v&&0IIN.",
"aIIh&&h55q:&y,&l&&&qv:&tc=&hl*&ll&*zj&=xy&:vq&<b8&<n5&7n<&qn,&qv;&yx*&kz*&&l*&l,r<&:v&&0IIN.",
"aIIh&&h05<<&h,&x&&&Cqy&Ayq=Vk5,vc,4lV=9hC&tqC&jqV&x8b&n9z&Vqh&Zer&Ch9;ml3&&l&&x5<2*;v&&0IIN.",
"aIIh&&hq<;2*y,&l&&&9z;&ql&&yk*&hj&*ky&&zq&;z9&:z5&<v<&<x<&7z:&0l=&el*&yj&&&l*&x2,<2;c&&qIIN.",
"aIIh&&h82;<2y,&l&&&&&&&&&&&&&&&&&&&&&&&&&&&&&&&&&&&&&&&&&&&&&&&&&&&&&&&&&&&l&&x<<<<;c&&0IIN.",
"aIIh&&h5<<<<y,&x&&&yn,&kb:&lb*&cc&*bl&;bk&,ny&<Ve&6V8&9V6&eV<&hn,&lb;&xb*&&l*&x;2*25v&&0IIN.",
"aIIh&&y5,2*8y,&l&&&Cey&Ah0*Vl5,bc<5lV=9hZ&rtV&jqV&c9v&bql&Vqj&Cye&Cj8-ml3&&l&&x&<<<5c&&0IIN.",
"aIIh&&h5&<65y,&x&&&5j=&7h&&qy&&ee&&yq&*h8&*j5&;j<&,j<&<j;&2j=&6h*&8h&&qt&&&l&&x&<48,v&&0IIN.",
"aIIh&&h5&4y=y,&z&&&&&&&&&&&&&&&&&&&&&&&&&&&&&&&&&&&&&&&&&&&&&&&&&&&&&&&&&&&l*&x&*y5;v&&0IIN.",
"aIIh&&h5;q5;y<&z&&&kC<&zV,&bV=*mn*=Vb&:Vx&<Vk&5Ch&9Zq&eC9&hC5&lV<&cV:&bV=&&l&&x=e5<:v&&0IIN.",
"aIIh&&h84&<<y,&z&&&Vht&Cj9*Cl4>bb,3zV=8kC&qhC&jtn&zqv&bel&Mty&Vhq&Cl7-Vx3&&l*&c,&<<;v&&0IIN.",
"aIIh&&y5&:q<y,&z&&&<e&&4q&&6q&&99&&q7&&e5&*r<&*r,&=t:&:t=&,r*&2e*&4q&&60&&&l&&x&;t3:v&&0IIN.",
"aIIh&&h5;r0&y,&z&&&&&&&&&&&&&&&&&&&&&&&&&&&&&&&&&&&&&&&&&&&&&&&&&&&&&&&&&&&l&&x*eq*;v&&0IIN.",
"aIIh&&h526&&y,&l&,Gq&&&bC<&VC;*CV*;CV&,Zn&3Zx&8Zk&qZy&hCq&lZ7&cC3&MC,&&&hS=l*&x,4&&,v&&qIIN.",
"aIIh&&u5<<<5h,&x&jx,&&&Cl8*Vc2;mb,2vV=7lC&qkV&hhn&lhx&vyl&njy&Vlq&Cz5&&&<mql&&x,2;0<c&&0IIN.",
"aIIh&&h5<e4&y,&l&j94&&&<9&&27&&45&&6<&&8<&&8,&&9:&&q=&=0&&;9&&>9&&<7&&&&5hql*&x&qe&;v&&0IIN.",
"aIIh&&h550,&y,&x&7mb9=Sblz,**&&&*&&*&&&*&&&*&&&=&&&=&&&=&&&=&&&=&5clmC*rlG,l&&z,e<&:c&&qIIN.",
"aIIh&&h95<2&y,&l&&ClAPPH0x*CC,=CC=:CC*<CV&5Cv&qVz&tVj&jVt&xV9&bV5,hyPPImbx&l&&x5<<=:v&&0IIN.",
"aIIh&&he<;2*y,&x&&8I6kPVLV*Cb2;VV:<mC*5cC&qlV&tlv&klz&xlj&blr&Vx9,VGVPeeP2&l*&x3<<<,c&&0IIN.",
"aIIh&&h72;<<y,&l&7Il6<hlII<>2&&,,&&<,&&3;&&5=&&5*&&5&&*5&&*5&&-3&9IIjy,8bP<l&&c<<<<:v&&0IIN.",
"aIIh&&h5<<,<y,&z&&;AqnkvGh<&&&&:=&&:=&&:*&&,&&&<&&&<&&&,&&*,&&&&&3lZlcntV*&l&&x>3*<5v&&0IIN.",
"aIIh&&h5,3*8h,&z&&ctVV55lh&&&&;CV;,VC&3VV&8nn&evv&jcl&zvh&vbq&&&&&vt68Cnkh&l&&x&1<<5v&&0IIN.",
"aIIh&&y5&<75y,&x&5AjzvcVkS<&,&=VC;,VC*4nV&8bV&qvx&hvl&lvy&bvq&&>&9CclClvtJ,l&&z&238,v&&0IIN.",
"aIIh&&h5&5y=y,&l&jVhS9CnAcq<I<&;=&&:=&&:*&&,=&&,*&&,&&&,&&&,&&qL-eMmZvyChD0l*&x&&y5:c&&0IIN.",
"aIIh&&h5;e5;y,&x&5Vv<&t,&hCSl&&&&&&&&&&&&&&&&&&&&&&&&&&&&&&&&&*cGmq&59&6mb,l&&x=e6<;c&&0IIN.",
"aIIh&&h83&<<y,&l&&&&&&&&&&&&&&&&&&&&&&&&&&&&&&&&&&&&&&&&&&&&&&&&&&&&&&&&&&&l*&x,&<,:v&&0IIN.",
"aIIh&&h5&&<<y,&lnVnVVVnVmmnVVmmmmmmmmmmmVnVnVnVnmmmmmmmmmmmmmmmmmmmmmmmmmmmm&&x&&<<:v&&0IIN.",
"aIIh&&h5&<0&y,&&&&&&&&&&&&&&&&&&&&&&&&&&&&&&&&&&&&&&&&&&&&&&&&&&&&&&&&&&&&&&&&x&,q*;c&&0IIN.",
"aIIh&&h5;9&&yr9988998989889998888889889898998888888888889999889888998898988888x&*<>;v&&0IIN.",
"aIIh&&h5e75&<ytyyhyyytyhkhyyyyyyhyytyyylhyyyyyyhyyyyyhkhyytytyhtyyyyhkhyyyyyyy5&75w2v&&0IIN.",
"aIIh&&h0e<qr*&&&&4=&&;<2<8<<,<;&5*&&;<3<7<,,,;&5*&&,<2<7<<,<;&5*&&><<<8,,,,;&&&q8,69v&&qIIN.",
"aIIh&&h5eq5=8&,,&&e<<2<>=<eq<9e=*e<<3<>-<rq<0e=*q<<3<;;<r0<qe**e<<3<;;2t0<<q*&,830e1x&&0IIN.",
"aIIh&&h5*hr8e&&0,<6y5*,<2<,8:&qq<6y5*<<2<,9;&q0<7y5*<<4<,9-&q0,7y5*,<4<,9=&*<&8qwk;;v&&0IIN.",
"aIIh&&qe&-66,&&*<2,;762<-&&&6&*<<,;752<=&&&6&*<<,;662<-&&&5&*2<>:77<<*&&&6&&&&-65>&5k&&0IIN.",
"aIIh&&*ZlkjjjjjjjjjjjljkjjjjkkkjjjjjljjjjjkkjjjjjjjljjkjjjkjkjjjjjljjjjjkkjjjjjjjjlS>&&0IIN.",
"aIIh&&&*588988888898888888888888898889888989988888898888889889889888988889898888897=&&&0IIN.",
"aIIl&&&&&&&&&&&&&&&&&&&&&&&&&&&&&&&&&&&&&&&&&&&&&&&&&&&&&&&&&&&&&&&&&&&&&&&&&&&&&&&&&&&rIIg.",
"aIIP3&&&&&&&&&&&&&&&&&&&&&&&&&&&&&&&&&&&&&&&&&&&&&&&&&&&&&&&&&&&&&&&&&&&&&&&&&&&&&&&&&,GIIN.",
"iIIIILJJJJJJJJJJJJLJJJJJJJJJJJLJJJJJJJJJJJLJJJJJJJJJJJLJJJJJJJJJJJLJJJJJJJJJJJLJJJJJJLIIIIs.",
"XFIIIIIIIIIIIIIIIIIIIIIIIIIIIIIIIIIIIIIIIIIIIIIIIIIIIIIIIIIIIIIIIIIIIIIIIIIIIIIIIIIIIIIIII+.",
".OdBBBBBBBBBBBBBBBBBBBBBBBBBBBBBBBBBBBBBBBBBBBBBBBBBBBBBBBBBBBBBBBBBBBBBBBBBBBBBBBBBBBBBg@. ",
" .........................................................................................  "
};
